<svg fill="none" viewBox="0 0 28 28"><path fill="#4D4D4D" d="M20.359 26.542c-1.318 0-2.707-.315-4.142-.922-1.4-.595-2.811-1.412-4.188-2.403a34.403 34.403 0 01-3.932-3.36 34.846 34.846 0 01-3.348-3.92c-1.003-1.4-1.808-2.788-2.38-4.153-.607-1.436-.91-2.836-.91-4.154 0-.91.163-1.773.478-2.578a6.277 6.277 0 011.564-2.263c.898-.876 1.925-1.33 3.021-1.33.455 0 .922.104 1.319.291.455.21.84.525 1.12.945l2.706 3.815c.245.338.432.665.56.992.152.35.234.7.234 1.038 0 .444-.129.875-.374 1.284a4.667 4.667 0 01-.781.991l-.794.829c.012.034.024.058.035.081.14.245.42.665.957 1.295a42.52 42.52 0 001.645 1.797c.7.688 1.26 1.213 1.797 1.657.665.56 1.096.84 1.353.968l-.023.058.851-.84c.362-.361.712-.63 1.05-.805.642-.396 1.459-.466 2.275-.128.304.128.63.303.98.548l3.874 2.754c.42.291.746.665.933 1.108.175.443.257.851.257 1.26 0 .56-.129 1.12-.374 1.645-.245.525-.548.98-.933 1.4-.665.735-1.388 1.26-2.228 1.598a6.89 6.89 0 01-2.602.502zM6.522 3.208c-.641 0-1.236.28-1.808.84-.525.502-.91 1.05-1.143 1.646a5.104 5.104 0 00-.362 1.936c0 1.085.257 2.263.77 3.477.525 1.237 1.26 2.52 2.193 3.803a32.286 32.286 0 003.162 3.71 32.862 32.862 0 003.722 3.174c1.26.921 2.555 1.668 3.838 2.204 1.995.852 3.862 1.05 5.402.409a4.307 4.307 0 001.598-1.155c.268-.292.478-.607.653-.98.14-.292.21-.595.21-.898 0-.187-.035-.374-.128-.584-.023-.058-.105-.198-.327-.35l-3.873-2.753a3.342 3.342 0 00-.642-.362c-.303-.116-.501-.128-.758.035-.233.117-.443.292-.677.525l-.886.875c-.455.443-1.155.548-1.692.35l-.315-.14c-.478-.256-1.038-.653-1.657-1.178-.571-.479-1.155-1.027-1.901-1.762a47.054 47.054 0 01-1.739-1.89c-.548-.642-.945-1.19-1.19-1.645l-.151-.35a2.043 2.043 0 01-.094-.572c0-.42.152-.793.444-1.085l.875-.91c.233-.233.408-.454.525-.653a.748.748 0 00.128-.397 1.09 1.09 0 00-.093-.373c-.07-.198-.199-.396-.362-.63L7.537 3.698a1.075 1.075 0 00-.431-.361 1.46 1.46 0 00-.584-.129zm9.754 14.304l-.187.793.315-.817a.162.162 0 00-.128.024zm7.641-9.637h-5.833A.881.881 0 0117.209 7c0-.478.397-.875.875-.875h5.833c.479 0 .875.397.875.875a.881.881 0 01-.875.875z"/><path fill="#4D4D4D" d="M21 10.792a.881.881 0 01-.875-.875V4.084c0-.479.397-.875.875-.875s.875.396.875.874v5.834a.881.881 0 01-.875.875z"/></svg>