<svg fill="none" viewBox="0 0 30 30"><path fill="#4D4D4D" d="M15 10.938a.944.944 0 01-.937-.938V4.763l-.9.9a.943.943 0 01-1.325 0 .943.943 0 010-1.325l2.5-2.5a.941.941 0 011.025-.2c.35.137.575.487.575.862V10a.944.944 0 01-.937.938z"/><path fill="#4D4D4D" d="M17.5 5.937a.927.927 0 01-.662-.275l-2.5-2.5a.943.943 0 010-1.325.943.943 0 011.325 0l2.5 2.5a.943.943 0 010 1.325.927.927 0 01-.662.275zm2.5 22.5H10c-7.188 0-7.188-3.812-7.188-7.187V20c0-2.788 0-5.938 5.938-5.938 1.488 0 2.037.363 2.813.938.037.037.087.063.124.113l1.276 1.35c1.075 1.137 3.025 1.137 4.1 0l1.274-1.35c.038-.038.076-.075.125-.113.776-.588 1.326-.938 2.813-.938 5.938 0 5.938 3.15 5.938 5.938v1.25c-.026 4.775-2.438 7.188-7.213 7.188zm-11.25-12.5c-4.063 0-4.063 1.275-4.063 4.063v1.25c0 3.425 0 5.313 5.313 5.313h10c3.725 0 5.313-1.588 5.313-5.313V20c0-2.788 0-4.063-4.063-4.063-.9 0-1.087.113-1.625.513l-1.212 1.288A4.663 4.663 0 0115 19.212a4.66 4.66 0 01-3.412-1.474l-1.213-1.288c-.537-.4-.725-.512-1.625-.512z"/><path fill="#4D4D4D" d="M6.25 15.937A.944.944 0 015.312 15v-2.5c0-2.425 0-5.438 4.6-5.875.5-.063.975.325 1.025.85a.94.94 0 01-.85 1.025c-2.9.262-2.9 1.437-2.9 4V15a.944.944 0 01-.937.937zm17.5 0a.944.944 0 01-.938-.937v-2.5c0-2.563 0-3.738-2.9-4.013a.939.939 0 01-.837-1.025c.05-.512.5-.9 1.025-.837 4.6.437 4.6 3.45 4.6 5.875V15a.964.964 0 01-.95.937z"/></svg>