<svg><defs><font id="Sora" horiz-adv-x="590"><font-face alphabetic="0" ascent="970" descent="-290" font-family="Sora SemiBold"/><glyph horiz-adv-x="216"/><glyph d="M84 237v493h142V237H84zM73 0v148h164V0H73z" horiz-adv-x="310" unicode="!"/><glyph d="M71 434v296h124V434H71zm207 0v296h124V434H278z" horiz-adv-x="473" unicode="&quot;"/><glyph d="M120 0l113 730h113L233 0H120zm247 0l113 730h113L480 0H367zM34 193v94h606v-94H34zm38 250v94h606v-94H72z" horiz-adv-x="712" unicode="#"/><glyph d="M327-3q-94 0-157 28t-96 81-33 125h128q0-31 16-59t50-45 92-18q75 0 114 29t39 72q0 39-33 65t-104 32l-56 5q-103 10-164 62T62 524q0 67 30 113t88 69 137 24q82 0 139-27t88-77 31-123H447q0 31-14 57t-43 42-73 16q-40 0-68-12t-43-33-15-49q0-35 25-62t83-32l56-5q115-10 184-64t70-151q0-67-33-114t-97-73T327-3zm-61-126V17h116v-146H266zm-4 810v146h116V681H262z" horiz-adv-x="651" unicode="$"/><glyph d="M249 0l269 730h115L364 0H249zm-52 332q-58 0-96 26t-56 71-19 96v26q0 57 19 100t57 68 95 25q58 0 96-24t57-68 19-101v-26q0-52-18-96t-56-70-98-27zm0 93q36 0 53 26t18 86q0 64-18 89t-53 25q-35 0-52-25t-18-88q0-59 17-86t53-27zM680-15q-58 0-96 26t-56 71-19 96v26q0 57 19 100t57 68 95 25q58 0 96-24t57-68 19-101v-26q0-52-18-96t-56-70-98-27zm0 93q36 0 53 26t18 86q0 64-18 89t-53 25q-35 0-52-25t-18-88q0-59 17-86t53-27z" horiz-adv-x="877" unicode="%"/><glyph d="M534 0L248 308q-46 50-72 87t-38 71-12 74q0 62 26 106t81 69 144 24q35 0 74-3t70-8V612q-20 3-50 5t-59 4-49 2q-63 0-85-23t-23-66q0-38 18-71t57-77L690 0H534zM292-20q-80 0-139 31T60 95 26 213v14q0 72 41 128t104 88l60-78q-32-19-54-55t-22-84q0-40 17-69t50-46 76-16q62 0 111 34t78 104 29 181h122q0-104-26-184T539 94 429 9 292-20zm123 416v103h277V396H415z" horiz-adv-x="717" unicode="&amp;"/><glyph d="M71 434v296h124V434H71z" horiz-adv-x="266" unicode="'"/><glyph d="M219-182q-49 61-86 132T76 107 56 302q0 109 21 194t59 154 86 126h155q-54-66-96-138t-65-155-23-181q0-97 19-181t61-159 104-144H219z" horiz-adv-x="387" unicode="("/><glyph d="M168-182q49 61 86 132t57 157 20 195q0 109-21 194t-59 154-86 126H10q54-66 96-138t65-155 23-181q0-97-19-181T114-38 10-182h158z" horiz-adv-x="387" unicode=")"/><glyph d="M473 367L321 477v108l152 110 55-97-125-52v-30l125-52-55-97zM326 782l-19-187-94-54-171 77 56 96 108-82 26 15-18 134 112 1zM42 444l171 77 94-54 19-187-111 2 17 133-26 15-108-81-56 95z" horiz-adv-x="569" unicode="*"/><glyph d="M236 97v494h122V97H236zM55 288v112h484V288H55z" horiz-adv-x="594" unicode="+"/><glyph d="M121-166L13-125l102 290 116-43-110-288z" horiz-adv-x="269" unicode=","/><glyph d="M51 220v122h405V220H51z" horiz-adv-x="507" unicode="-"/><glyph d="M57 0v160h156V0H57z" horiz-adv-x="269" unicode="."/><glyph d="M21-60l206 840h139L160-60H21z" horiz-adv-x="386" unicode="/"/><glyph d="M379-19q-86 0-146 28t-98 78-55 114-18 136v56q0 101 34 182t104 128 179 48q108 0 178-47t103-129 34-182v-56q0-71-17-135T622 88t-98-78-145-29zm0 130q89 0 131 61t42 192q0 138-43 197t-130 60q-88 0-131-59t-44-196q0-131 43-193t132-62z" horiz-adv-x="756" unicode="0"/><glyph d="M185 0v642l44-34H36v122h290V0H185z" horiz-adv-x="425" unicode="1"/><glyph d="M65 0v140q0 46 14 80t48 60 89 51l124 55q46 21 70 51t25 79q0 53-31 84t-90 32q-58 0-89-32t-32-89H56q0 68 29 122t86 86 143 32q86 0 143-31t86-82 29-115v-13q0-82-46-136t-135-95l-124-55q-35-15-49-31t-14-45V84l-34 37h405V0H65z" horiz-adv-x="627" unicode="2"/><glyph d="M306-19q-84 0-144 32T69 98 37 218h137q0-53 35-85t97-33q41 0 70 15t46 43 16 64q0 54-35 88t-96 35q-30 0-52-8t-40-21l-65 112 240 164-9 17H67v121h477V584L297 420l-77 14q19 6 41 9t48 4q83 0 142-28t92-79 32-115v-13q0-63-32-115t-92-84-145-32z" horiz-adv-x="626" unicode="3"/><glyph d="M38 151v154l286 445 107-73-252-394 12-20h448V151H38zM420 0v523h131V0H420z" horiz-adv-x="662" unicode="4"/><glyph d="M323-19q-86 0-147 34t-94 90-33 124h137q0-38 17-67t49-45 72-17q43 0 74 18t47 49 17 71q0 39-16 70t-47 50-74 19q-36 0-68-14t-50-37H76l37 404h423V609H175l50 39-24-252-34 10q29 33 71 55t106 22q81 0 138-33t87-87 30-119v-13q0-65-32-122t-93-92-151-36z" horiz-adv-x="637" unicode="5"/><glyph d="M356-21q-81 0-137 27t-92 76-51 111-16 135v44q0 179 90 271t266 93q38 0 71-2t66-6V609q-33 4-67 6t-75 2q-84 0-132-29t-68-85-21-139v-65l-32-46q1 77 30 127t82 76 119 26q78 0 133-31t84-86 30-128q0-76-34-134t-96-91-150-33zm-3 119q47 0 80 17t50 49 17 71q0 41-16 72t-49 48-77 17q-43 0-78-15t-56-46-21-76q0-39 16-70t50-49 84-18z" horiz-adv-x="678" unicode="6"/><glyph d="M144 0l273 600-9 13H38v117h532V622L293 0H144zM38 496v234h115V496H38z" horiz-adv-x="596" unicode="7"/><glyph d="M328-20q-84 0-148 27T80 84 44 203q0 46 16 81t44 61 66 39v12q-29 13-52 34t-37 51-14 69q0 66 34 110t94 67 133 23q74 0 133-22t94-67 35-111q0-39-13-69t-37-51-53-34v-12q38-13 66-39t44-61 16-81q0-69-35-119T478 7 328-20zm0 117q46 0 79 14t51 41 18 65q0 38-17 64t-51 41-80 14q-45 0-78-14t-51-40-18-65q0-38 18-65t51-41 78-14zm0 345q58 0 91 24t34 72q0 49-34 72t-91 23q-57 0-90-23t-34-72q0-47 34-71t90-25z" horiz-adv-x="657" unicode="8"/><glyph d="M322 751q81 0 137-27t92-76 51-111 16-135v-44q0-179-90-271T262-6q-38 0-71 2t-66 6v119q33-4 67-6t75-2q84 0 132 29t68 85 21 139v65l32 46q-1-77-30-127t-82-76-119-26q-78 0-133 31t-84 86-30 128q0 76 34 134t96 91 150 33zm3-119q-47 0-80-17t-50-49-17-71q0-41 16-72t49-48 77-17q43 0 78 15t56 46 21 76q0 39-16 70t-50 49-84 18z" horiz-adv-x="678" unicode="9"/><glyph d="M57 0v160h156V0H57zm0 345v160h156V345H57z" horiz-adv-x="269" unicode=":"/><glyph d="M123-166L15-125l102 290 116-43-110-288zM63 345v160h156V345H63z" horiz-adv-x="269" unicode=";"/><glyph d="M522 564V447L72 306v112l450 146zM72 352l450-141V93L72 239v113zm100 16v-82h-30v82h30z" horiz-adv-x="594" unicode="&lt;"/><glyph d="M55 376v112h480V376H55zm0-203v112h480V173H55z" unicode="="/><glyph d="M72 93v117l450 141V239L72 93zm450 212L72 446v118l450-146V305zm-100-16v82h30v-82h-30z" horiz-adv-x="594" unicode="&gt;"/><glyph d="M186 236v178h85q60 0 88 31t29 78q0 33-13 57t-38 38-58 13q-36 0-61-15t-40-40-14-58H31q0 64 29 117t85 84 137 32q74 0 127-28t83-78 29-111v-12q0-61-29-109t-85-75-138-30l57 52-2-124H186zM175 0v148h160V0H175z" horiz-adv-x="559" unicode="?"/><glyph d="M566-245q-110 0-203 35T200-110 93 46 55 251q0 110 36 201t105 158 163 103 212 37q102 0 191-29t158-85 108-140 39-192q0-88-26-156T965 41 845 1q-49 0-85 20t-57 58-20 88v57h32q-3-71-29-119t-69-72-98-25q-62 0-111 30t-79 83-29 123v16q0 70 28 122t78 80 111 29q57 0 101-25t70-71 30-112h-26v191h102V174q0-23 7-38t20-23 30-8q31 0 54 24t36 67 14 104q0 89-30 154t-83 107-123 63-147 21q-94 0-169-28t-127-81-81-125-28-161q0-118 51-205T359-90t207-48q33 0 67 4t63 10v-108q-29-6-63-9t-67-4zm-22 356q34 0 62 15t45 46 17 73v22q0 40-17 66t-45 41-62 14q-38 0-66-17t-43-47-15-72q0-40 15-72t42-50 67-19z" horiz-adv-x="1126" unicode="@"/><glyph d="M18 0l249 730h232L755 0H609L392 633l51-22H318l52 22L160 0H18zm174 194l45 120h296l44-120H192z" horiz-adv-x="773" unicode="A"/><glyph d="M209-5v114h183q50 0 76 27t26 76q0 48-26 74t-76 27H209v87h173q73 0 130-17t90-59 33-110v-14q0-65-28-110t-85-70T382-5H209zM90-5v740h139V-5H90zm119 341v87h156q51 0 75 27t24 72q0 45-24 72t-75 27H209v114h143q124 0 188-52t65-149v-14q0-68-32-108t-90-58-131-18H209z" horiz-adv-x="688" unicode="B"/><glyph d="M419-19q-99 0-170 35t-115 91-66 122-21 127v22q0 68 21 134t67 120 114 86 165 33q99 0 172-35t118-100 53-151H614q-8 50-35 84t-70 52-95 18q-54 0-96-18t-70-53-42-80-15-102q0-54 14-100t44-80 71-54 99-19q82 0 138 40t69 114h143q-10-78-53-143T598 20 419-19z" horiz-adv-x="799" unicode="C"/><glyph d="M212-4v132h151q57 0 101 17t76 50 47 75 17 97q0 55-16 98t-48 75-75 47-102 16H212v132h142q99 0 173-29t123-79 73-115 25-134v-22q0-66-24-130t-74-116-123-83T354-4H212zM90-4v739h142V-4H90z" horiz-adv-x="785" unicode="D"/><glyph d="M90 0v730h139V0H90zm119 0v120h331V0H209zm0 311v120h305V311H209zm0 299v120h323V610H209z" horiz-adv-x="596" unicode="E"/><glyph d="M90 0v730h142V0H90zm122 304v120l292 1V305l-292-1zm0 306v120h306V610H212z" horiz-adv-x="560" unicode="F"/><glyph d="M430-19q-94 0-165 31T145 97 72 218 47 359v22q0 69 24 135t70 119 115 84 158 32q96 0 170-35t119-99 53-148H613q-7 47-35 80t-70 52-94 18q-51 0-92-18t-71-51-44-79-16-102q0-61 17-109t48-81 75-51 99-18q73 0 128 30t80 80l-25-115v188h131V131Q697 60 616 21T430-19zm-23 284v106h398V265H407z" horiz-adv-x="832" unicode="G"/><glyph d="M569 0v730h142V0H569zM90 0v730h142V0H90zm116 303v125h389V303H206z" horiz-adv-x="801" unicode="H"/><glyph d="M92 0v730h142V0H92z" horiz-adv-x="326" unicode="I"/><glyph d="M300-19q-79 0-139 31t-93 91-33 147v32h141v-44q0-58 34-91t89-34q56 0 89 33t34 92v387h142V250q0-87-33-147t-92-91-139-31zM124 605v125h440V605H124z" horiz-adv-x="642" unicode="J"/><glyph d="M563 0L296 341H193l317 389h163L387 380l-4 70L736 0H563zM90 0v730h142V0H90z" horiz-adv-x="728" unicode="K"/><glyph d="M90 0v730h142V0H90zm122 0v125h315V0H212z" horiz-adv-x="553" unicode="L"/><glyph d="M90 0v730h194l183-436h18l182 436h197V0H723v623l18-2-197-472H399L201 621l19 2V0H90z" horiz-adv-x="954" unicode="M"/><glyph d="M90 0v730h233l307-612h33l-20-18v630h134V0H543L236 612h-34l20 18V0H90z" horiz-adv-x="867" unicode="N"/><glyph d="M433-19q-99 0-171 35t-120 91-71 122-24 127v22q0 67 24 133t72 121 121 86 169 33q96 0 168-32t120-87 73-120 24-134v-22q0-61-23-126t-71-122-120-92-171-35zm0 132q56 0 100 20t76 55 48 81 17 97q0 55-16 101t-48 80-77 53-100 19q-56 0-101-19t-76-53-48-80-17-101q0-51 16-96t48-81 77-56 101-20z" horiz-adv-x="865" unicode="O"/><glyph d="M212 224v123h142q43 0 72 17t45 47 16 69q0 39-15 69t-45 46-73 17H212v123h130q92 0 156-30t99-85 34-132v-16q0-76-34-131t-98-86-157-31H212zM90 0v735h142V0H90z" horiz-adv-x="658" unicode="P"/><glyph d="M573-215q-63 0-109 15t-73 56-26 115V75h132V-38q0-31 17-47t48-17h114v-113H573zM433-19q-99 0-171 35t-120 91-71 122-24 127v22q0 67 24 133t72 121 121 86 169 33q96 0 168-32t120-87 73-120 24-134v-22q0-61-23-126t-71-122-120-92-171-35zm0 132q56 0 100 20t76 55 48 81 17 97q0 55-16 101t-48 80-77 53-100 19q-56 0-101-19t-76-53-48-80-17-101q0-51 16-96t48-81 77-56 101-20z" horiz-adv-x="865" unicode="Q"/><glyph d="M90 0v735h142V0H90zm446 0L312 318h159L702 0H536zM190 244v115h186q39 0 67 16t45 45 16 66q0 38-16 67t-44 45-68 16H190v121h171q88 0 152-26t100-79 35-133v-16q0-81-35-133t-100-78-152-26H190z" horiz-adv-x="720" unicode="R"/><glyph d="M339-19q-97 0-163 31T74 97 39 221h139q0-29 16-56t51-45 94-17q52 0 87 15t52 39 17 56q0 39-33 62t-102 30l-64 5q-105 9-167 65T66 525q0 70 33 120t92 78 140 28q83 0 143-29t93-81 33-124H461q0 30-14 55t-43 41-73 16q-42 0-70-14t-42-38-14-52q0-34 25-59t79-30l64-6q78-6 137-33t91-73 33-111q0-69-36-121T496 10 339-19z" horiz-adv-x="674" unicode="S"/><glyph d="M234 0v625h142V0H234zM23 605v125h564V605H23z" horiz-adv-x="610" unicode="T"/><glyph d="M391-19q-102 0-172 39T113 129 76 295v435h142V287q0-52 20-91t58-61 95-22q55 0 93 21t58 61 20 92v443h142V295q0-95-35-165T563 20 391-19z" horiz-adv-x="780" unicode="U"/><glyph d="M254 0L21 730h147L361 98l-42 20h108l-43-20 178 632h142L488 0H254z" horiz-adv-x="729" unicode="V"/><glyph d="M210 0L24 730h147L322 95l-39 23h100l-44-23 119 607h122L432 0H210zm436 0L485 702h127L749 95l-43 23h98l-38-23 133 635h139L872 0H646z" horiz-adv-x="1062" unicode="W"/><glyph d="M11 0l257 389 1-17L33 730h158l158-245h21l157 245h152L440 369l-2 17L701 0H544L360 274h-21L163 0H11z" horiz-adv-x="713" unicode="X"/><glyph d="M230 279L10 730h146l168-353-32 10h95l-34-10 153 353h138L441 279H230zM266 0v301h139V0H266z" horiz-adv-x="655" unicode="Y"/><glyph d="M46 0v122l403 488 2-21-30 40 20-16H58v117h548V608L202 121l-3 23 33-45-24 18h403V0H46z" horiz-adv-x="650" unicode="Z"/><glyph d="M94-182v958h133v-958H94zm85 0v114h162v-114H179zm0 844v114h162V662H179z" horiz-adv-x="387" unicode="["/><glyph d="M235-60L14 780h138L372-60H235z" horiz-adv-x="386" unicode="\"/><glyph d="M293-182v958H160v-958h133zm-85 0v114H46v-114h162zm0 844v114H46V662h162z" horiz-adv-x="387" unicode="]"/><glyph d="M55 310l164 423h166l162-423H431L315 633h-24L173 310H55z" horiz-adv-x="602" unicode="^"/><glyph d="M0-158v104h585v-104H0z" horiz-adv-x="585" unicode="_"/><glyph d="M112 612L0 817h148l87-205H112z" horiz-adv-x="300" unicode="`"/><glyph d="M408 0v161h-23v179q0 47-23 70t-71 23q-25 0-60-1t-70-2-64-4v118q23 2 52 4t59 2 58 1q84 0 139-22t84-69 29-123V0H408zM233-14q-59 0-103 21T61 67t-25 94q0 60 29 98t83 57 126 19h126v-83H272q-48 0-73-23t-26-61q0-37 25-60t74-23q29 0 53 10t41 36 19 70l34-39q-5-57-27-96T330 7t-97-21z" horiz-adv-x="588" unicode="a"/><glyph d="M398-18q-67 0-118 28t-80 84-32 133h21V0H79v730h139V365l-37-57q4 84 33 140t80 84 113 28q56 0 102-21t79-58 50-88 18-109v-21q0-59-18-110t-52-89-81-60-107-22zM367 99q45 0 78 22t53 62 19 90q0 52-19 90t-52 59-79 21q-41 0-75-18t-56-53-22-84v-40q0-47 22-80t57-51 74-18z" horiz-adv-x="699" unicode="b"/><glyph d="M320-19q-71 0-122 24t-86 64-52 90-17 102v19q0 55 17 105t53 90 86 63 120 24q71 0 127-27t89-77 38-114H438q-5 42-35 70t-84 28q-46 0-76-22t-46-60-15-89q0-48 14-87t45-61 79-22q36 0 62 13t41 36 20 52h135q-4-66-38-115T449 9 320-19z" horiz-adv-x="610" unicode="c"/><glyph d="M304-18q-57 0-105 21t-83 59-54 88-19 110v21q0 58 18 109t52 89 81 59 106 22q64 0 112-27t78-83 32-138l-41 48v370h139V0H510v231h24q-3-83-34-138t-81-83-115-28zm31 117q41 0 75 18t54 54 21 84v40q0 48-21 80t-55 50-74 18q-45 0-79-21t-54-61-20-91q0-52 20-90t54-60 79-21z" horiz-adv-x="699" unicode="d"/><glyph d="M322-19q-70 0-122 24t-87 64-52 91-18 102v19q0 54 17 104t52 90 86 63 118 24q88 0 147-38t90-101 30-135v-50H102v85h394l-43-42q0 52-15 89t-45 57-77 20q-46 0-78-21t-48-60-17-95q0-51 16-90t49-62 84-23q51 0 83 20t41 51h128q-12-56-46-98T442 4 322-19z" horiz-adv-x="620" unicode="e"/><glyph d="M92 0v556q0 93 51 137t153 45h68V631h-78q-31 0-47-16t-17-47V0H92zM24 432v102h349V432H24z" horiz-adv-x="381" unicode="f"/><glyph d="M291-214q-39 0-79 3t-76 8v116q36-4 77-7t77-4q67 0 108 16t61 50 20 88v107l30 68q-3-75-31-127t-76-80T291-4q-56 0-101 21t-78 58-51 87-18 107v21q0 57 18 106t53 87 81 57 104 20q67 0 116-29t78-84 31-135l-24-4v235h110V64q0-99-34-160t-104-89-181-29zm40 329q40 0 73 18t53 52 20 82v35q0 46-20 78t-54 48-72 17q-44 0-77-20t-53-58-19-88q0-50 19-87t52-57 78-20z" horiz-adv-x="683" unicode="g"/><glyph d="M79 0v730h139V304h-24q0 82 21 139t62 87 106 30h6q93 0 141-64t48-186V0H439v323q0 52-29 82t-78 30q-51 0-82-33t-32-88V0H79z" horiz-adv-x="648" unicode="h"/><glyph d="M105 0v543h139V0H105zM29 439v104h215V439H29zm127 169q-41 0-60 21t-20 55q0 33 19 54t61 21q41 0 60-21t19-54q0-33-19-54t-60-22z" horiz-adv-x="325" unicode="i"/><glyph d="M2-205v119h42q37 0 57 20t20 57v552h134V-1q0-75-23-119t-71-65-126-20H2zm40 644v104h213V439H42zm124 173q-40 0-59 21t-20 55q0 33 19 54t60 21q41 0 60-21t20-54q0-33-19-54t-61-22z" horiz-adv-x="332" unicode="j"/><glyph d="M459 0L277 254h-81l231 289h145L359 276l3 70L616 0H459zM79 0v730h139V0H79z" horiz-adv-x="617" unicode="k"/><glyph d="M86 0v730h139V0H86zM18 626v104h207V626H18z" horiz-adv-x="305" unicode="l"/><glyph d="M79 0v543h110V310h-10q0 82 21 137t62 84 104 29h6q63 0 104-28t62-84 21-138h-35q0 82 21 137t63 84 104 29h6q63 0 105-28t63-84 22-138V0H769v323q0 51-26 81t-74 31q-48 0-77-31t-29-85V0H424v323q0 51-26 81t-74 31q-48 0-77-31t-29-85V0H79z" horiz-adv-x="978" unicode="m"/><glyph d="M79 0v543h110V310h-10q0 83 22 138t65 84 109 28h6q97 0 147-62t50-187V0H439v323q0 50-28 81t-79 31q-51 0-82-31t-32-85V0H79z" horiz-adv-x="648" unicode="n"/><glyph d="M340-19q-72 0-127 23t-93 62-57 90-20 104v21q0 56 20 106t59 90 94 62 124 23q69 0 124-22t93-62 59-90 20-107v-21q0-54-19-104t-58-89-93-63-126-23zm0 119q51 0 86 22t53 61 18 88q0 50-18 88t-54 61-85 23q-49 0-84-22t-55-61-19-89q0-49 18-87t54-61 86-23z" horiz-adv-x="679" unicode="o"/><glyph d="M79-200v743h110V309l-17 1q4 83 34 139t82 83 114 28q58 0 104-21t80-59 52-88 18-109v-21q0-59-17-109t-51-89-81-60-105-22q-61 0-111 25t-82 79-35 139l44-67v-358H79zM367 99q45 0 78 22t53 61 19 90q0 52-19 90t-52 59-79 22q-41 0-75-18t-56-53-22-84v-40q0-47 22-80t57-51 74-18z" horiz-adv-x="699" unicode="p"/><glyph d="M481-200v361l41 64q-3-78-32-132t-78-83-113-28q-58 0-105 21t-80 60-52 89-19 110v21q0 58 19 108t53 88 82 59 107 22q68 0 118-29t78-84 32-136h-22v232h110v-743H481zM335 101q41 0 75 18t54 54 21 84v40q0 48-21 80t-55 50-74 18q-45 0-79-21t-54-61-20-91q0-51 20-89t54-60 79-22z" horiz-adv-x="699" unicode="q"/><glyph d="M79 0v543h110V313h-3q0 117 50 177t147 60h20V429h-38q-70 0-108-37t-39-109V0H79z" horiz-adv-x="417" unicode="r"/><glyph d="M276-17q-112 0-175 47T34 162h125q3-28 31-51t88-23q50 0 79 18t30 49q0 27-22 43t-77 21l-48 5q-91 10-140 52T51 388q0 56 28 94t77 57 114 20q100 0 162-44t65-129H372q-2 28-28 48t-75 20q-44 0-68-17t-24-44q0-26 19-40t64-19l48-5q96-10 150-53t55-116q0-54-29-93T401 5 276-17z" horiz-adv-x="549" unicode="s"/><glyph d="M315-7q-75 0-123 19t-73 66-24 126l1 492h130l-1-501q0-40 21-61t62-22h85V-7h-78zM9 441v102h384V441H9z" horiz-adv-x="431" unicode="t"/><glyph d="M264-17q-94 0-145 62T67 229v315h139V217q0-50 28-79t76-30q48 0 78 31t31 84v321h139V0H448v231h11q0-82-21-137t-63-83-105-28h-6z" horiz-adv-x="639" unicode="u"/><glyph d="M188 0L18 543h143L324 0H188zm41 0v114h147V0H229zm55 0l140 543h134L411 0H284z" horiz-adv-x="584" unicode="v"/><glyph d="M265 0l103 525h160L647 0H537L416 522h58L367 0H265zm-41 0l-1 114h111V0H224zm-56 0L20 543h135L296 0H168zm404 0v114h111L682 0H572zm44 0l125 543h126L736 0H616z" horiz-adv-x="897" unicode="w"/><glyph d="M17 0l177 290-3-23L24 543h151l109-191h15l103 191h142L386 268l3 20L576 0H425L296 205h-15L159 0H17z" horiz-adv-x="587" unicode="x"/><glyph d="M63-214v119h102q29 0 48 7t33 24 20 46l146 561h133L384-48q-16-61-45-97t-74-53-113-16H63zM232 12v110h116V12H232zm-47 0L9 543h140L316 12H185z" horiz-adv-x="562" unicode="y"/><glyph d="M44 0v110l268 322v-16l-21 28 17-8H43v107h414V433L189 111v15l22-28-17 9h274V0H44z" horiz-adv-x="497" unicode="z"/><glyph d="M324-182q-92 0-148 47T120 11v164q0 31-19 46t-54 16v125q35 0 54 15t19 47v159q0 99 56 146t148 47h24V662h-24q-36 0-54-20t-18-58V423q0-56-25-84t-75-34v-12q50-5 75-32t25-86V10q0-38 18-58t54-20h24v-114h-24z" horiz-adv-x="387" unicode="{"/><glyph d="M128-200v930l119 1v-930l-119-1z" horiz-adv-x="375" unicode="|"/><glyph d="M63-182q92 0 148 47t56 146v164q0 31 19 46t54 16v125q-35 0-54 15t-19 47v159q0 99-56 146T63 776H39V662h24q36 0 54-20t18-58V423q0-56 25-84t75-34v-12q-50-5-75-32t-25-86V10q0-38-18-58T63-68H39v-114h24z" horiz-adv-x="387" unicode="}"/><glyph d="M364 223q-36 0-64 13t-51 31-45 31-43 14q-20 0-35-15t-22-51l-84-1q3 59 24 97t54 58 66 19q36 0 64-13t51-31 45-30 42-14q21 0 36 15t21 51h84q-2-60-24-98t-53-57-66-19z" horiz-adv-x="527" unicode="~"/><glyph horiz-adv-x="216"/><glyph d="M84 306v-493h142v493H84zM73 543V395h164v148H73z" horiz-adv-x="310" unicode="¡"/><glyph d="M318 97q-68 0-119 21t-86 57-52 84-18 97v20q0 52 18 99t52 84 86 57 119 21q71 0 125-24t88-71 40-112H439q-5 40-37 65t-85 26q-43 0-74-19t-48-54-17-82q0-46 16-80t47-54 76-19q53 0 87 26t40 68h132q-5-64-39-111t-90-73-129-26zM261 0v146h116V0H261zm0 579v146h116V579H261z" horiz-adv-x="611" unicode="¢"/><glyph d="M114 0v488q0 122 73 187t204 65q23 0 54-1t60-4 49-5V616q-19 3-49 5t-62 3-53 2q-51 0-84-15t-50-48-16-82V0H114zM42 0v108h484V0H42zm6 314v93h434v-93H48zM490 0v198h110V0H490z" horiz-adv-x="632" unicode="£"/><glyph d="M339 138q-75 0-128 32t-82 83-29 105v16q0 56 28 106t82 82 129 32q75 0 128-31t82-82 29-107v-16q0-54-28-104t-82-83-129-33zM115 75l-80 81 108 108 80-81L115 75zm28 393L35 576l80 81 108-108-80-81zm196-222q39 0 65 15t40 43 14 62q0 37-14 64t-41 41-64 15q-37 0-64-14t-41-42-14-64q0-35 13-62t41-42 65-16zM562 75L454 183l80 81 108-108-80-81zm-28 393l-80 81 108 108 80-81-108-108z" horiz-adv-x="677" unicode="¤"/><glyph d="M236 301L18 730h145l164-334-33 8h88l-34-8 149 334h137L432 301H236zM269 0v323h130V0H269zM60 149v76h546v-76H60zm0 152v76h546v-76H60z" horiz-adv-x="652" unicode="¥"/><glyph d="M128 335v395h119V335H128zm0-535v391h119v-391H128z" horiz-adv-x="375" unicode="¦"/><glyph d="M287-93q-112 0-175 48T45 92h125q3-31 31-55t87-25q45 0 70 18t26 49q0 23-18 38t-48 26-65 22q-36 11-73 24t-68 34-50 49-19 72q0 49 22 85t59 59 79 31l99-50q-38-4-68-19t-48-36-17-47q0-29 20-47t53-30 70-25q35-10 69-23t64-32 46-47 17-70q0-85-58-135T287-93zm78 261l-67 68q65 14 96 43t31 67q0 27-19 44t-51 29-69 24q-36 12-73 26t-68 34-49 50-19 75q0 50 26 88t74 62 109 23q99 0 158-45t60-128H381q-1 31-24 49t-70 19q-43 0-63-18t-21-46q0-25 18-41t49-27 67-21q36-11 74-24t69-34 51-50 20-77q0-48-21-84t-62-63-103-43z" horiz-adv-x="593" unicode="§"/><glyph d="M77 635q-40 0-58 22T0 711q0 32 18 53t59 22q41 0 59-21t18-54q0-32-18-54t-59-22zm210 0q-40 0-58 22t-19 54q0 32 18 53t59 22q41 0 59-21t18-54q0-32-18-54t-59-22z" horiz-adv-x="300" unicode="¨"/><glyph d="M358 111q-81 0-140 28t-98 74-56 100-19 107v18q0 54 19 108t57 100 97 72 140 27q81 0 139-27t97-72 58-99 19-109v-18q0-52-18-106t-56-101-97-74-142-28zm0 54q78 0 135 36t87 97 31 130q0 73-30 132t-88 95-135 36q-78 0-135-35t-87-95-31-133q0-70 30-130t88-96 135-37zm4 77q-61 0-100 26t-57 67-19 85v13q0 47 19 88t59 66 98 26q70 0 115-38t50-103h-92q-3 26-20 43t-52 17q-43 0-61-28t-19-77q0-30 8-54t25-37 47-13q34 0 52 17t22 46h93q-4-66-51-105t-117-39z" horiz-adv-x="716" unicode="©"/><glyph d="M280 350v111h-20v117q0 24-11 37t-38 13h-36q-24 0-53-2t-52-3v104q17 2 40 3t47 2 42 1q61 0 100-18t60-53 20-84V350h-99zm-117-10q-58 0-95 32t-38 89q0 42 22 68t62 39 89 12h71v-65h-70q-24 0-37-12t-14-34q0-19 13-31t38-13q15 0 27 6t20 20 9 38l29-28q-5-57-36-89t-90-32z" horiz-adv-x="428" unicode="ª"/><glyph d="M157 39L26 236v46l137 201h149L172 275v-28L312 39H157zm265 0L291 236v46l137 201h149L437 275v-28L577 39H422z" horiz-adv-x="614" unicode="«"/><glyph d="M55 263v112h512V79H459v247l62-63H55z" horiz-adv-x="622" unicode="¬"/><glyph d="M46 220v122h340V220H46z" horiz-adv-x="432" unicode="­"/><glyph d="M339 178q-70 0-123 24t-90 65-54 90-18 98v16q0 51 18 99t55 89 90 63 122 24q69 0 122-23t89-64 55-88 19-100v-16q0-49-18-98t-54-89-89-65-124-25zm0 52q69 0 120 31t80 84 29 117q0 66-28 118t-80 83-121 31q-69 0-120-30t-80-83-29-119q0-64 28-116t80-84 121-32zm-117 82v312h74V312h-74zm184 0l-81 120h78l86-120h-83zm-149 94v63h86q28 0 40 12t13 34q0 23-12 34t-41 12h-86v63h81q63 0 98-28t35-81q0-52-35-80t-98-29h-81z" horiz-adv-x="678" unicode="®"/><glyph d="M0 654v98h319v-98H0z" horiz-adv-x="300" unicode="¯"/><glyph d="M203 378q-53 0-93 24t-64 64-23 89q0 48 23 87t63 64 94 24q54 0 94-24t63-63 23-88q0-49-22-89t-63-64-95-24zm0 95q37 0 58 24t21 58q0 33-21 56t-58 24q-37 0-58-23t-21-57q0-34 21-58t58-24z" horiz-adv-x="406" unicode="°"/><glyph d="M68 40v107h474V40H68zm180 166v450l115 1V207l-115-1zM68 378v107h474V378H68z" horiz-adv-x="610" unicode="±"/><glyph d="M41 420v82q0 38 21 64t70 47l65 26q23 10 36 23t14 38q0 22-15 36t-43 14q-27 0-41-14t-15-38H36q0 58 39 97t114 39q74 0 113-37t40-92v-6q0-45-24-76t-85-55l-64-27q-17-6-25-13t-9-19v-21l-24 16h231v-84H41z" horiz-adv-x="380" unicode="²"/><glyph d="M187 409q-74 0-117 38t-43 95h97q0-22 17-36t46-14q29 0 45 15t17 39q0 23-16 38t-46 15q-16 0-29-5t-22-12l-46 75 120 69-5 9H45v87h285v-88l-147-87-47 16q12 4 26 5t26 2q73 0 116-33t43-91v-6q0-56-43-93t-117-38z" horiz-adv-x="381" unicode="³"/><glyph d="M0 612l89 205h144L119 612H0z" horiz-adv-x="300" unicode="´"/><glyph d="M67-200v744h139V217q0-50 28-79t76-30q32 0 56 14t39 40 14 61v321h139V156q0-18 9-27t28-10h51V0h-58q-56 0-91 18t-51 55-16 93l18 65h11q0-82-21-137t-62-83-97-28h-5q-34 0-67 16t-55 46-24 72l40 8q0-32 7-65t14-69 8-73v-118H67z" horiz-adv-x="676" unicode="µ"/><glyph d="M202 381q-99 0-146 47T9 552v11q0 78 47 124t146 47h102V381H202zM266 0v734h108V0H266zm178 0v734h106V0H444z" horiz-adv-x="639" unicode="¶"/><glyph d="M57 200v160h156V200H57z" horiz-adv-x="269" unicode="·"/><glyph d="M120-261q-22 0-42 3t-35 8v87q14-4 33-7t39-4q30 0 44 8t14 23q0 13-10 20t-36 7H80V12h84v-98l-52 41h15q64 0 101-25t38-74q0-49-38-83t-108-34z" horiz-adv-x="300" unicode="¸"/><glyph d="M107 420v333l25-19H27v88h180V420H107z" horiz-adv-x="263" unicode="¹"/><glyph d="M237 336q-64 0-109 26t-69 71-25 96v16q0 55 25 99t70 70 108 26q61 0 106-26t71-70 25-99v-16q0-52-24-96t-69-70-109-27zm0 105q25 0 42 12t26 34 9 50q0 28-9 50t-26 35-42 13q-25 0-42-12t-27-35-9-51q0-28 9-49t26-34 43-13z" horiz-adv-x="473" unicode="º"/><glyph d="M457 483l131-197v-46L451 39H302l140 208v28L302 483h155zm-265 0l131-197v-46L186 39H37l140 208v28L37 483h155z" horiz-adv-x="614" unicode="»"/><glyph d="M107 255v333l25-19H27v88h180V255H107zm28-277l394 702h101L236-22H135zm330 94v103l159 247 77-47-134-211 8-12h248V72H465zM683 0v291h93V0h-93z" horiz-adv-x="843" unicode="¼"/><glyph d="M107 255v333l25-19H27v88h180V255H107zm28-277l394 702h101L236-22H135zM528 0v82q0 38 21 64t70 47l65 26q23 10 36 23t14 38q0 22-15 36t-43 14q-27 0-41-14t-15-38h-97q0 58 39 97t114 39q74 0 113-37t40-92v-6q0-45-24-76t-85-55l-64-27q-17-6-25-13t-9-19V68l-24 16h231V0H528z" horiz-adv-x="866" unicode="½"/><glyph d="M187 244q-74 0-117 38t-43 95h97q0-22 17-36t46-14q29 0 45 15t17 39q0 23-16 38t-46 15q-16 0-29-5t-22-12l-46 75 120 69-5 9H45v87h285v-88l-147-87-47 16q12 4 26 5t26 2q73 0 116-33t43-91v-6q0-56-43-93t-117-38zm49-266l394 702h101L337-22H236zm330 94v103l159 247 77-47-134-211 8-12h248V72H566zM784 0v291h93V0h-93z" horiz-adv-x="944" unicode="¾"/><glyph d="M373 307V129h-85q-60 0-88-31t-29-78q0-33 13-57t38-38 58-13q36 0 61 15t40 40 14 58h133q0-64-29-117t-85-84-137-32q-74 0-127 28t-83 78T38 9v12q0 61 29 109t85 75 138 30l-57-52 2 124h138zm11 236V395H224v148h160z" horiz-adv-x="559" unicode="¿"/><glyph d="M18 0l249 730h232L755 0H609L392 633l51-22H318l52 22L160 0H18zm174 194l45 120h296l44-120H192zm126 592L183 960h154l114-174H318z" horiz-adv-x="773" unicode="À"/><glyph d="M18 0l249 730h232L755 0H609L392 633l51-22H318l52 22L160 0H18zm174 194l45 120h296l44-120H192zm114 592l126 174h152L437 786H306z" horiz-adv-x="773" unicode="Á"/><glyph d="M18 0l249 730h232L755 0H609L392 633l51-22H318l52 22L160 0H18zm174 194l45 120h296l44-120H192zm-19 592l129 174h165l131-174H471l-79 107h-17l-77-107H173z" horiz-adv-x="773" unicode="Â"/><glyph d="M18 0l249 730h232L755 0H609L392 633l51-22H318l52 22L160 0H18zm174 194l45 120h296l44-120H192zm278 601q-30 0-51 7t-38 18-36 18-42 8q-30 0-53-11t-37-30l-22 93q16 21 44 35t69 15q30 0 51-8t38-18 36-17 42-8q30 0 53 11t37 29l22-93q-16-20-44-34t-69-15z" horiz-adv-x="773" unicode="Ã"/><glyph d="M18 0l249 730h232L755 0H609L392 633l51-22H318l52 22L160 0H18zm174 194l45 120h296l44-120H192zm80 607q-39 0-59 21t-21 55q0 33 20 54t60 21q42 0 61-21t20-55q0-33-19-54t-62-21zm220 0q-39 0-59 21t-21 55q0 33 20 54t60 21q42 0 61-21t20-55q0-33-19-54t-62-21z" horiz-adv-x="773" unicode="Ä"/><glyph d="M18 0l249 730h232L755 0H609L392 633l51-22H318l52 22L160 0H18zm174 194l45 120h296l44-120H192zm191 570q-58 0-92 31t-35 80q0 48 34 79t93 32q57 0 91-31t35-80q0-48-34-79t-92-32zm-1 66q25 0 38 13t13 32q0 20-13 33t-37 13q-24 0-37-13t-14-33q0-19 13-32t37-13z" horiz-adv-x="773" unicode="Å"/><glyph d="M2 0l289 730h205V611H343l51 22L144 0H2zm196 213l46 121h252V213H198zM475 0v730h138V0H475zm117 0v120h331V0H592zm0 311v120h306V311H592zm0 299v120h323V610H592z" horiz-adv-x="979" unicode="Æ"/><glyph d="M419-19q-99 0-170 35t-115 91-66 122-21 127v22q0 68 21 134t67 120 114 86 165 33q99 0 172-35t118-100 53-151H614q-8 50-35 84t-70 52-95 18q-54 0-96-18t-70-53-42-80-15-102q0-54 14-100t44-80 71-54 99-19q82 0 138 40t69 114h143q-10-78-53-143T598 20 419-19zm-6-248q-23 0-45 3t-36 9v91q15-5 35-8t42-4q31 0 46 8t16 23q0 13-12 19t-38 7h-49V12h90v-98l-55 41h14q66 0 105-25t40-76q0-50-39-85t-114-36z" horiz-adv-x="799" unicode="Ç"/><glyph d="M90 0v730h139V0H90zm119 0v120h331V0H209zm0 311v120h305V311H209zm0 299v120h323V610H209zm40 176L114 960h154l114-174H249z" horiz-adv-x="596" unicode="È"/><glyph d="M90 0v730h139V0H90zm119 0v120h331V0H209zm0 311v120h305V311H209zm0 299v120h323V610H209zm28 176l126 174h152L368 786H237z" horiz-adv-x="596" unicode="É"/><glyph d="M90 0v730h139V0H90zm119 0v120h331V0H209zm0 311v120h305V311H209zm0 299v120h323V610H209zM104 786l129 174h165l131-174H402l-79 107h-17l-77-107H104z" horiz-adv-x="596" unicode="Ê"/><glyph d="M90 0v730h139V0H90zm119 0v120h331V0H209zm0 311v120h305V311H209zm0 299v120h323V610H209zm-6 191q-39 0-59 21t-21 55q0 33 20 54t60 21q42 0 61-21t20-55q0-33-19-54t-62-21zm220 0q-39 0-59 21t-21 55q0 33 20 54t60 21q42 0 61-21t20-55q0-33-19-54t-62-21z" horiz-adv-x="596" unicode="Ë"/><glyph d="M92 0v730h142V0H92zm262 786L219 960h154l114-174H354z" horiz-adv-x="326" unicode="Ì"/><glyph d="M92 0v730h142V0H92zm-5 786l126 174h152L218 786H87z" horiz-adv-x="326" unicode="Í"/><glyph d="M92 0v730h142V0H92zm117 786l129 174h165l131-174H507l-79 107h-17l-77-107H209z" horiz-adv-x="326" unicode="Î"/><glyph d="M92 0v730h142V0H92zm217 801q-39 0-59 21t-21 55q0 33 20 54t60 21q42 0 61-21t20-55q0-33-19-54t-62-21zm220 0q-39 0-59 21t-21 55q0 33 20 54t60 21q42 0 61-21t20-55q0-33-19-54t-62-21z" horiz-adv-x="326" unicode="Ï"/><glyph d="M212-4v132h151q57 0 101 17t76 50 47 75 17 97q0 55-16 98t-48 75-75 47-102 16H212v132h142q99 0 173-29t123-79 73-115 25-134v-22q0-66-24-130t-74-116-123-83T354-4H212zM90-4v739h142V-4H90zM17 307v116h380V307H17z" horiz-adv-x="785" unicode="Ð"/><glyph d="M90 0v730h233l307-612h33l-20-18v630h134V0H543L236 612h-34l20 18V0H90zm446 795q-30 0-51 7t-38 18-36 18-42 8q-30 0-53-11t-37-30l-22 93q16 21 44 35t69 15q30 0 51-8t38-18 36-17 42-8q30 0 53 11t37 29l22-93q-16-20-44-34t-69-15z" horiz-adv-x="867" unicode="Ñ"/><glyph d="M433-19q-99 0-171 35t-120 91-71 122-24 127v22q0 67 24 133t72 121 121 86 169 33q96 0 168-32t120-87 73-120 24-134v-22q0-61-23-126t-71-122-120-92-171-35zm0 132q56 0 100 20t76 55 48 81 17 97q0 55-16 101t-48 80-77 53-100 19q-56 0-101-19t-76-53-48-80-17-101q0-51 16-96t48-81 77-56 101-20zm-65 673L233 960h154l114-174H368z" horiz-adv-x="865" unicode="Ò"/><glyph d="M433-19q-99 0-171 35t-120 91-71 122-24 127v22q0 67 24 133t72 121 121 86 169 33q96 0 168-32t120-87 73-120 24-134v-22q0-61-23-126t-71-122-120-92-171-35zm0 132q56 0 100 20t76 55 48 81 17 97q0 55-16 101t-48 80-77 53-100 19q-56 0-101-19t-76-53-48-80-17-101q0-51 16-96t48-81 77-56 101-20zm-77 673l126 174h152L487 786H356z" horiz-adv-x="865" unicode="Ó"/><glyph d="M433-19q-99 0-171 35t-120 91-71 122-24 127v22q0 67 24 133t72 121 121 86 169 33q96 0 168-32t120-87 73-120 24-134v-22q0-61-23-126t-71-122-120-92-171-35zm0 132q56 0 100 20t76 55 48 81 17 97q0 55-16 101t-48 80-77 53-100 19q-56 0-101-19t-76-53-48-80-17-101q0-51 16-96t48-81 77-56 101-20zM223 786l129 174h165l131-174H521l-79 107h-17l-77-107H223z" horiz-adv-x="865" unicode="Ô"/><glyph d="M433-19q-99 0-171 35t-120 91-71 122-24 127v22q0 67 24 133t72 121 121 86 169 33q96 0 168-32t120-87 73-120 24-134v-22q0-61-23-126t-71-122-120-92-171-35zm0 132q56 0 100 20t76 55 48 81 17 97q0 55-16 101t-48 80-77 53-100 19q-56 0-101-19t-76-53-48-80-17-101q0-51 16-96t48-81 77-56 101-20zm87 682q-30 0-51 7t-38 18-36 18-42 8q-30 0-53-11t-37-30l-22 93q16 21 44 35t69 15q30 0 51-8t38-18 36-17 42-8q30 0 53 11t37 29l22-93q-16-20-44-34t-69-15z" horiz-adv-x="865" unicode="Õ"/><glyph d="M433-19q-99 0-171 35t-120 91-71 122-24 127v22q0 67 24 133t72 121 121 86 169 33q96 0 168-32t120-87 73-120 24-134v-22q0-61-23-126t-71-122-120-92-171-35zm0 132q56 0 100 20t76 55 48 81 17 97q0 55-16 101t-48 80-77 53-100 19q-56 0-101-19t-76-53-48-80-17-101q0-51 16-96t48-81 77-56 101-20zM322 801q-39 0-59 21t-21 55q0 33 20 54t60 21q42 0 61-21t20-55q0-33-19-54t-62-21zm220 0q-39 0-59 21t-21 55q0 33 20 54t60 21q42 0 61-21t20-55q0-33-19-54t-62-21z" horiz-adv-x="865" unicode="Ö"/><glyph d="M460 101l81 81-407 406-81-81 407-406zm-330 0l411 410-77 77L53 178l77-77z" horiz-adv-x="594" unicode="×"/><glyph d="M88-61l572 842h116L204-61H88zm345 42q-99 0-171 35t-120 91-71 122-24 127v22q0 67 24 133t72 121 121 86 169 33q96 0 168-32t120-87 73-120 24-134v-22q0-61-23-126t-71-122-120-92-171-35zm0 132q56 0 100 20t76 55 48 81 17 97q0 55-16 101t-48 80-77 53-100 19q-56 0-101-19t-76-53-48-80-17-101q0-51 16-96t48-81 77-56 101-20z" horiz-adv-x="865" unicode="Ø"/><glyph d="M391-19q-102 0-172 39T113 129 76 295v435h142V287q0-52 20-91t58-61 95-22q55 0 93 21t58 61 20 92v443h142V295q0-95-35-165T563 20 391-19zm-65 805L191 960h154l114-174H326z" horiz-adv-x="780" unicode="Ù"/><glyph d="M391-19q-102 0-172 39T113 129 76 295v435h142V287q0-52 20-91t58-61 95-22q55 0 93 21t58 61 20 92v443h142V295q0-95-35-165T563 20 391-19zm-77 805l126 174h152L445 786H314z" horiz-adv-x="780" unicode="Ú"/><glyph d="M391-19q-102 0-172 39T113 129 76 295v435h142V287q0-52 20-91t58-61 95-22q55 0 93 21t58 61 20 92v443h142V295q0-95-35-165T563 20 391-19zM181 786l129 174h165l131-174H479l-79 107h-17l-77-107H181z" horiz-adv-x="780" unicode="Û"/><glyph d="M391-19q-102 0-172 39T113 129 76 295v435h142V287q0-52 20-91t58-61 95-22q55 0 93 21t58 61 20 92v443h142V295q0-95-35-165T563 20 391-19zM280 801q-39 0-59 21t-21 55q0 33 20 54t60 21q42 0 61-21t20-55q0-33-19-54t-62-21zm220 0q-39 0-59 21t-21 55q0 33 20 54t60 21q42 0 61-21t20-55q0-33-19-54t-62-21z" horiz-adv-x="780" unicode="Ü"/><glyph d="M230 279L10 730h146l168-353-32 10h95l-34-10 153 353h138L441 279H230zM266 0v301h139V0H266zm-14 786l126 174h152L383 786H252z" horiz-adv-x="655" unicode="Ý"/><glyph d="M212 122v124h133q42 0 70 15t42 44 14 66q0 39-14 67t-42 43-70 16H212v123h124q89 0 151-29t95-84 33-128v-15q0-73-32-127t-95-85-152-30H212zM90 0v730h142V0H90z" horiz-adv-x="642" unicode="Þ"/><glyph d="M377-13q-26 0-51 3t-45 8v114q19-4 43-7t43-4q57 0 87 30t31 81q0 35-15 63t-46 46-77 17h-42v104h28q30 0 49 13t29 34 10 46q0 27-10 49t-32 35-51 13q-32 0-55-15t-35-43-13-66V0H86v498q0 118 63 183t177 65h4q71 0 122-26t80-73 28-103q0-50-22-88t-66-60-110-22l3 38q84 0 142-26t87-73 30-111q0-69-32-117t-88-73-127-25zM26 420v104h90V420H26z" horiz-adv-x="658" unicode="ß"/><glyph d="M408 0v161h-23v179q0 47-23 70t-71 23q-25 0-60-1t-70-2-64-4v118q23 2 52 4t59 2 58 1q84 0 139-22t84-69 29-123V0H408zM233-14q-59 0-103 21T61 67t-25 94q0 60 29 98t83 57 126 19h126v-83H272q-48 0-73-23t-26-61q0-37 25-60t74-23q29 0 53 10t41 36 19 70l34-39q-5-57-27-96T330 7t-97-21zm-2 626L119 817h148l87-205H231z" horiz-adv-x="588" unicode="à"/><glyph d="M408 0v161h-23v179q0 47-23 70t-71 23q-25 0-60-1t-70-2-64-4v118q23 2 52 4t59 2 58 1q84 0 139-22t84-69 29-123V0H408zM233-14q-59 0-103 21T61 67t-25 94q0 60 29 98t83 57 126 19h126v-83H272q-48 0-73-23t-26-61q0-37 25-60t74-23q29 0 53 10t41 36 19 70l34-39q-5-57-27-96T330 7t-97-21zm-15 626l89 205h144L337 612H218z" horiz-adv-x="588" unicode="á"/><glyph d="M408 0v161h-23v179q0 47-23 70t-71 23q-25 0-60-1t-70-2-64-4v118q23 2 52 4t59 2 58 1q84 0 139-22t84-69 29-123V0H408zM233-14q-59 0-103 21T61 67t-25 94q0 60 29 98t83 57 126 19h126v-83H272q-48 0-73-23t-26-61q0-37 25-60t74-23q29 0 53 10t41 36 19 70l34-39q-5-57-27-96T330 7t-97-21zM99 612l106 205h166l105-205H360l-68 139h-11l-68-139H99z" horiz-adv-x="588" unicode="â"/><glyph d="M408 0v161h-23v179q0 47-23 70t-71 23q-25 0-60-1t-70-2-64-4v118q23 2 52 4t59 2 58 1q84 0 139-22t84-69 29-123V0H408zM233-14q-59 0-103 21T61 67t-25 94q0 60 29 98t83 57 126 19h126v-83H272q-48 0-73-23t-26-61q0-37 25-60t74-23q29 0 53 10t41 36 19 70l34-39q-5-57-27-96T330 7t-97-21zm129 644q-28 0-47 7t-35 18-32 18-38 8q-25 0-44-10t-34-27l-21 94q17 18 41 31t59 14q29 0 48-8t35-18 32-17 38-8q25 0 44 10t34 27l21-94q-16-19-41-32t-60-13z" horiz-adv-x="588" unicode="ã"/><glyph d="M408 0v161h-23v179q0 47-23 70t-71 23q-25 0-60-1t-70-2-64-4v118q23 2 52 4t59 2 58 1q84 0 139-22t84-69 29-123V0H408zM233-14q-59 0-103 21T61 67t-25 94q0 60 29 98t83 57 126 19h126v-83H272q-48 0-73-23t-26-61q0-37 25-60t74-23q29 0 53 10t41 36 19 70l34-39q-5-57-27-96T330 7t-97-21zm-51 649q-40 0-58 22t-19 54q0 32 18 53t59 22q41 0 59-21t18-54q0-32-18-54t-59-22zm210 0q-40 0-58 22t-19 54q0 32 18 53t59 22q41 0 59-21t18-54q0-32-18-54t-59-22z" horiz-adv-x="588" unicode="ä"/><glyph d="M408 0v161h-23v179q0 47-23 70t-71 23q-25 0-60-1t-70-2-64-4v118q23 2 52 4t59 2 58 1q84 0 139-22t84-69 29-123V0H408zM233-14q-59 0-103 21T61 67t-25 94q0 60 29 98t83 57 126 19h126v-83H272q-48 0-73-23t-26-61q0-37 25-60t74-23q29 0 53 10t41 36 19 70l34-39q-5-57-27-96T330 7t-97-21zm54 616q-55 0-89 33t-34 85q0 52 34 85t89 34q54 0 88-33t34-86q0-51-34-84t-88-34zm0 68q22 0 35 14t14 36q0 22-13 36t-36 14q-23 0-36-14t-13-36q0-21 13-35t36-15z" horiz-adv-x="588" unicode="å"/><glyph d="M660-19q-54 0-96 15t-72 40-50 57-31 70h39q-5-58-33-97T342 6 236-14q-60 0-105 20T61 66t-25 95q0 59 29 97t83 57 126 19h126v-83H272q-48 0-73-23t-26-61q0-37 25-59t74-23q29 0 54 11t41 36 18 71v137q0 46-23 69t-70 24q-25 0-60-1t-71-2-64-4v118q23 2 52 3t59 3 57 1q82 0 133-22t75-69 25-120h-89q10 60 39 110t80 80 127 30q87 0 145-38t89-101 31-134v-49H497v83h335l-42-40q0 52-15 88t-46 56-76 19q-46 0-78-21t-48-60-16-93q0-51 15-90t49-61 84-22q50 0 82 20t41 49h128q-11-55-45-97T778 4 660-19z" horiz-adv-x="957" unicode="æ"/><glyph d="M320-19q-71 0-122 24t-86 64-52 90-17 102v19q0 55 17 105t53 90 86 63 120 24q71 0 127-27t89-77 38-114H438q-5 42-35 70t-84 28q-46 0-76-22t-46-60-15-89q0-48 14-87t45-61 79-22q36 0 62 13t41 36 20 52h135q-4-66-38-115T449 9 320-19zm-5-242q-22 0-42 3t-35 8v87q14-4 33-7t39-4q30 0 44 8t14 23q0 13-10 20t-36 7h-47V12h84v-98l-52 41h15q64 0 101-25t38-74q0-49-38-83t-108-34z" horiz-adv-x="610" unicode="ç"/><glyph d="M322-19q-70 0-122 24t-87 64-52 91-18 102v19q0 54 17 104t52 90 86 63 118 24q88 0 147-38t90-101 30-135v-50H102v85h394l-43-42q0 52-15 89t-45 57-77 20q-46 0-78-21t-48-60-17-95q0-51 16-90t49-62 84-23q51 0 83 20t41 51h128q-12-56-46-98T442 4 322-19zm-61 631L149 817h148l87-205H261z" horiz-adv-x="620" unicode="è"/><glyph d="M322-19q-70 0-122 24t-87 64-52 91-18 102v19q0 54 17 104t52 90 86 63 118 24q88 0 147-38t90-101 30-135v-50H102v85h394l-43-42q0 52-15 89t-45 57-77 20q-46 0-78-21t-48-60-17-95q0-51 16-90t49-62 84-23q51 0 83 20t41 51h128q-12-56-46-98T442 4 322-19zm-75 631l89 205h144L366 612H247z" horiz-adv-x="620" unicode="é"/><glyph d="M322-19q-70 0-122 24t-87 64-52 91-18 102v19q0 54 17 104t52 90 86 63 118 24q88 0 147-38t90-101 30-135v-50H102v85h394l-43-42q0 52-15 89t-45 57-77 20q-46 0-78-21t-48-60-17-95q0-51 16-90t49-62 84-23q51 0 83 20t41 51h128q-12-56-46-98T442 4 322-19zM128 612l106 205h166l105-205H389l-68 139h-11l-68-139H128z" horiz-adv-x="620" unicode="ê"/><glyph d="M322-19q-70 0-122 24t-87 64-52 91-18 102v19q0 54 17 104t52 90 86 63 118 24q88 0 147-38t90-101 30-135v-50H102v85h394l-43-42q0 52-15 89t-45 57-77 20q-46 0-78-21t-48-60-17-95q0-51 16-90t49-62 84-23q51 0 83 20t41 51h128q-12-56-46-98T442 4 322-19zM211 635q-40 0-58 22t-19 54q0 32 18 53t59 22q41 0 59-21t18-54q0-32-18-54t-59-22zm210 0q-40 0-58 22t-19 54q0 32 18 53t59 22q41 0 59-21t18-54q0-32-18-54t-59-22z" horiz-adv-x="620" unicode="ë"/><glyph d="M105 0v543h139V0H105zM29 439v104h215V439H29zm318 173L235 817h148l87-205H347z" horiz-adv-x="325" unicode="ì"/><glyph d="M105 0v543h139V0H105zM29 439v104h215V439H29zm49 173l89 205h144L197 612H78z" horiz-adv-x="325" unicode="í"/><glyph d="M105 0v543h139V0H105zM29 439v104h215V439H29zm186 173l106 205h166l105-205H476l-68 139h-11l-68-139H215z" horiz-adv-x="325" unicode="î"/><glyph d="M105 0v543h139V0H105zM29 439v104h215V439H29zm269 196q-40 0-58 22t-19 54q0 32 18 53t59 22q41 0 59-21t18-54q0-32-18-54t-59-22zm210 0q-40 0-58 22t-19 54q0 32 18 53t59 22q41 0 59-21t18-54q0-32-18-54t-59-22z" horiz-adv-x="325" unicode="ï"/><glyph d="M334-19q-72 0-126 21t-91 58-55 84-19 98v18q0 72 32 129t92 89 137 33q59 0 104-19t74-53 35-82h-11q-1 101-20 161t-56 87q-22 16-54 24t-77 8q-31 0-62-2t-61-8v106q31 5 61 7t62 3q114 0 185-45t103-134 33-224v-26q0-100-31-175T495 23 334-19zm0 119q49 0 83 18t51 53 18 80q0 48-18 82t-53 53-82 18q-47 0-81-18t-52-52-18-83q0-46 17-80t52-52 83-19zm41 419l-49 53 230 211 48-53-229-211z" horiz-adv-x="665" unicode="ð"/><glyph d="M79 0v543h110V310h-10q0 83 22 138t65 84 109 28h6q97 0 147-62t50-187V0H439v323q0 50-28 81t-79 31q-51 0-82-31t-32-85V0H79zm328 630q-28 0-47 7t-35 18-32 18-38 8q-25 0-44-10t-34-27l-21 94q17 18 41 31t59 14q29 0 48-8t35-18 32-17 38-8q25 0 44 10t34 27l21-94q-16-19-41-32t-60-13z" horiz-adv-x="648" unicode="ñ"/><glyph d="M340-19q-72 0-127 23t-93 62-57 90-20 104v21q0 56 20 106t59 90 94 62 124 23q69 0 124-22t93-62 59-90 20-107v-21q0-54-19-104t-58-89-93-63-126-23zm0 119q51 0 86 22t53 61 18 88q0 50-18 88t-54 61-85 23q-49 0-84-22t-55-61-19-89q0-49 18-87t54-61 86-23zm-56 512L172 817h148l87-205H284z" horiz-adv-x="679" unicode="ò"/><glyph d="M340-19q-72 0-127 23t-93 62-57 90-20 104v21q0 56 20 106t59 90 94 62 124 23q69 0 124-22t93-62 59-90 20-107v-21q0-54-19-104t-58-89-93-63-126-23zm0 119q51 0 86 22t53 61 18 88q0 50-18 88t-54 61-85 23q-49 0-84-22t-55-61-19-89q0-49 18-87t54-61 86-23zm-69 512l89 205h144L390 612H271z" horiz-adv-x="679" unicode="ó"/><glyph d="M340-19q-72 0-127 23t-93 62-57 90-20 104v21q0 56 20 106t59 90 94 62 124 23q69 0 124-22t93-62 59-90 20-107v-21q0-54-19-104t-58-89-93-63-126-23zm0 119q51 0 86 22t53 61 18 88q0 50-18 88t-54 61-85 23q-49 0-84-22t-55-61-19-89q0-49 18-87t54-61 86-23zM152 612l106 205h166l105-205H413l-68 139h-11l-68-139H152z" horiz-adv-x="679" unicode="ô"/><glyph d="M340-19q-72 0-127 23t-93 62-57 90-20 104v21q0 56 20 106t59 90 94 62 124 23q69 0 124-22t93-62 59-90 20-107v-21q0-54-19-104t-58-89-93-63-126-23zm0 119q51 0 86 22t53 61 18 88q0 50-18 88t-54 61-85 23q-49 0-84-22t-55-61-19-89q0-49 18-87t54-61 86-23zm75 530q-28 0-47 7t-35 18-32 18-38 8q-25 0-44-10t-34-27l-21 94q17 18 41 31t59 14q29 0 48-8t35-18 32-17 38-8q25 0 44 10t34 27l21-94q-16-19-41-32t-60-13z" horiz-adv-x="679" unicode="õ"/><glyph d="M340-19q-72 0-127 23t-93 62-57 90-20 104v21q0 56 20 106t59 90 94 62 124 23q69 0 124-22t93-62 59-90 20-107v-21q0-54-19-104t-58-89-93-63-126-23zm0 119q51 0 86 22t53 61 18 88q0 50-18 88t-54 61-85 23q-49 0-84-22t-55-61-19-89q0-49 18-87t54-61 86-23zM235 635q-40 0-58 22t-19 54q0 32 18 53t59 22q41 0 59-21t18-54q0-32-18-54t-59-22zm210 0q-40 0-58 22t-19 54q0 32 18 53t59 22q41 0 59-21t18-54q0-32-18-54t-59-22z" horiz-adv-x="679" unicode="ö"/><glyph d="M55 288v112h484V288H55zM230 69v135h134V69H230zm0 415v135h134V484H230z" horiz-adv-x="594" unicode="÷"/><glyph d="M71-59l443 652h93L164-59H71zm269 40q-72 0-127 23t-93 62-57 90-20 104v21q0 56 20 106t59 90 94 62 124 23q69 0 124-22t93-62 59-90 20-107v-21q0-54-19-104t-58-89-93-63-126-23zm0 119q51 0 86 22t53 61 18 88q0 50-18 88t-54 61-85 23q-49 0-84-22t-55-61-19-89q0-49 18-87t54-61 86-23z" horiz-adv-x="679" unicode="ø"/><glyph d="M264-17q-94 0-145 62T67 229v315h139V217q0-50 28-79t76-30q48 0 78 31t31 84v321h139V0H448v231h11q0-82-21-137t-63-83-105-28h-6zm-7 629L145 817h148l87-205H257z" horiz-adv-x="639" unicode="ù"/><glyph d="M264-17q-94 0-145 62T67 229v315h139V217q0-50 28-79t76-30q48 0 78 31t31 84v321h139V0H448v231h11q0-82-21-137t-63-83-105-28h-6zm-20 629l89 205h144L363 612H244z" horiz-adv-x="639" unicode="ú"/><glyph d="M264-17q-94 0-145 62T67 229v315h139V217q0-50 28-79t76-30q48 0 78 31t31 84v321h139V0H448v231h11q0-82-21-137t-63-83-105-28h-6zM125 612l106 205h166l105-205H386l-68 139h-11l-68-139H125z" horiz-adv-x="639" unicode="û"/><glyph d="M264-17q-94 0-145 62T67 229v315h139V217q0-50 28-79t76-30q48 0 78 31t31 84v321h139V0H448v231h11q0-82-21-137t-63-83-105-28h-6zm-56 652q-40 0-58 22t-19 54q0 32 18 53t59 22q41 0 59-21t18-54q0-32-18-54t-59-22zm210 0q-40 0-58 22t-19 54q0 32 18 53t59 22q41 0 59-21t18-54q0-32-18-54t-59-22z" horiz-adv-x="639" unicode="ü"/><glyph d="M63-214v119h102q29 0 48 7t33 24 20 46l146 561h133L384-48q-16-61-45-97t-74-53-113-16H63zM232 12v110h116V12H232zm-47 0L9 543h140L316 12H185zm28 600l89 205h144L332 612H213z" horiz-adv-x="562" unicode="ý"/><glyph d="M79-200v930h139V349l-29-24q4 75 33 127t78 80 113 27q56 0 100-20t77-57 49-88 17-112v-22q0-60-17-110t-51-88-80-58-105-21q-62 0-112 25t-82 78-35 139l44-67v-358H79zm288 300q45 0 78 22t53 62 19 89q0 52-19 89t-52 59-79 21q-41 0-75-18t-56-52-22-84v-40q0-47 22-80t57-50 74-18z" horiz-adv-x="699" unicode="þ"/><glyph d="M63-214v119h102q29 0 48 7t33 24 20 46l146 561h133L384-48q-16-61-45-97t-74-53-113-16H63zM232 12v110h116V12H232zm-47 0L9 543h140L316 12H185zm-8 623q-40 0-58 22t-19 54q0 32 18 53t59 22q41 0 59-21t18-54q0-32-18-54t-59-22zm210 0q-40 0-58 22t-19 54q0 32 18 53t59 22q41 0 59-21t18-54q0-32-18-54t-59-22z" horiz-adv-x="562" unicode="ÿ"/><glyph d="M18 227v109h485V227H18z" horiz-adv-x="521" unicode="–"/><glyph d="M18 227v109h873V227H18z" horiz-adv-x="909" unicode="—"/><glyph d="M219 740v-78h-24q-29 0-46-9t-25-30-8-58v-74l-29 56q7 5 20 8t27 4q33 0 55-20t22-57q0-34-21-57t-60-24q-25 0-46 11t-35 40-13 79v17q0 71 19 113t57 60 90 19h17z" horiz-adv-x="261" unicode="‘"/><glyph d="M42 401v78h24q29 0 46 9t25 30 8 58v74l29-56q-7-5-20-8t-27-4q-33 0-55 20t-22 57q0 34 21 57t60 24q25 0 46-11t35-40 13-79v-17q0-71-19-113t-57-60-90-19H42z" horiz-adv-x="261" unicode="’"/><glyph d="M42-192v78h24q29 0 46 9t25 30 8 58v74l29-56q-7-5-20-8t-27-4Q94-11 72 9T50 66q0 34 21 57t60 24q25 0 46-11t35-40 13-79V0q0-71-19-113t-57-60-90-19H42z" horiz-adv-x="261" unicode="‚"/><glyph d="M440 740v-78h-24q-29 0-46-9t-25-30-8-58v-74l-29 56q7 5 20 8t27 4q33 0 55-20t22-57q0-34-21-57t-60-24q-25 0-46 11t-35 40-13 79v17q0 71 19 113t57 60 90 19h17zm-221 0v-78h-24q-29 0-46-9t-25-30-8-58v-74l-29 56q7 5 20 8t27 4q33 0 55-20t22-57q0-34-21-57t-60-24q-25 0-46 11t-35 40-13 79v17q0 71 19 113t57 60 90 19h17z" horiz-adv-x="482" unicode="“"/><glyph d="M42 401v78h24q29 0 46 9t25 30 8 58v74l29-56q-7-5-20-8t-27-4q-33 0-55 20t-22 57q0 34 21 57t60 24q25 0 46-11t35-40 13-79v-17q0-71-19-113t-57-60-90-19H42zm221 0v78h24q29 0 46 9t25 30 8 58v74l29-56q-7-5-20-8t-27-4q-33 0-55 20t-22 57q0 34 21 57t60 24q25 0 46-11t35-40 13-79v-17q0-71-19-113t-57-60-90-19h-17z" horiz-adv-x="482" unicode="”"/><glyph d="M42-192v78h24q29 0 46 9t25 30 8 58v74l29-56q-7-5-20-8t-27-4Q94-11 72 9T50 66q0 34 21 57t60 24q25 0 46-11t35-40 13-79V0q0-71-19-113t-57-60-90-19H42zm221 0v78h24q29 0 46 9t25 30 8 58v74l29-56q-7-5-20-8t-27-4q-33 0-55 20t-22 57q0 34 21 57t60 24q25 0 46-11t35-40 13-79V0q0-71-19-113t-57-60-90-19h-17z" horiz-adv-x="482" unicode="„"/><glyph d="M87 153v271h260V153H87z" horiz-adv-x="434" unicode="•"/><glyph d="M157 39L26 236v46l137 201h149L172 275v-28L312 39H157z" horiz-adv-x="349" unicode="‹"/><glyph d="M192 483l131-197v-46L186 39H37l140 208v28L37 483h155z" horiz-adv-x="349" unicode="›"/></font>
</defs>
</svg>
