<svg><defs><font id="SpaceGrotesk" horiz-adv-x="559"><font-face alphabetic="0" ascent="984" descent="-292" font-family="Space Grotesk Light"/><glyph horiz-adv-x="254"/><glyph d="M85 230v470h128V230H85zm65-244q-41 0-68 26T54 81q0 42 27 68t69 27q40 0 67-26t27-69q0-42-27-68t-67-27z" horiz-adv-x="298" unicode="!"/><glyph d="M79 393v68h39q46 0 46 46v32h-17q-40 0-66 24t-27 61q0 40 26 65t67 25q41 0 67-25t26-69V505q0-112-112-112H79zm220 0v68h39q46 0 46 46v32h-17q-40 0-66 24t-27 61q0 40 26 65t67 25q41 0 67-25t26-69V505q0-112-112-112h-49z" horiz-adv-x="514" unicode="&quot;"/><glyph d="M148 0v186H40v108h108v112H40v108h108v186h114V514h112v186h114V514h108V406H488V294h108V186H488V0H374v186H262V0H148zm114 294h112v112H262V294z" horiz-adv-x="636" unicode="#"/><glyph d="M309-14q-81 0-143 29T69 98 34 228v28h130v-28q0-63 39-94t106-32q68 0 101 27t34 69q0 29-16 47t-47 29-76 22l-23 5q-72 16-123 40t-79 65-28 104q0 64 30 109t86 70 131 25q75 0 133-25t92-76 34-127v-30H428v30q0 40-15 64t-45 36-69 12q-60 0-88-22t-29-62q0-26 13-44t41-30 69-21l23-5q75-16 130-41t85-66 31-105q0-64-32-112t-92-76-141-28zm-61-102v932h120v-932H248z" horiz-adv-x="606" unicode="$"/><glyph d="M148-13L72 48l538 665 76-61L148-13zm422 3q-76 0-119 40t-43 111v7q0 71 43 111t119 41q74 0 118-40t44-112v-7q0-70-43-110T570-10zm0 82q29 0 45 18t17 47v16q0 29-16 47t-46 18q-29 0-45-18t-17-47v-16q0-29 16-47t46-18zM188 400q-76 0-119 40T26 551v7q0 71 43 111t119 41q74 0 118-40t44-112v-7q0-70-43-110t-119-41zm0 82q29 0 45 18t17 47v16q0 29-16 47t-46 18q-29 0-45-18t-17-47v-16q0-29 16-47t46-18z" horiz-adv-x="758" unicode="%"/><glyph d="M235 0q-62 0-108 22T54 87 28 189q0 43 15 75t43 53 60 31v14q-50 15-82 52t-32 98q0 61 27 103t73 63 107 22h109V596h-86q-45 0-74-24t-30-71q0-33 14-54t38-31 52-10h97v90h126v-90h92V302h-92V0H235zm23 104h101v198H258q-44 0-74-25t-30-74q0-50 31-74t73-25z" horiz-adv-x="591" unicode="&amp;"/><glyph d="M79 393v68h39q46 0 46 46v32h-17q-40 0-66 24t-27 61q0 40 26 65t67 25q41 0 67-25t26-69V505q0-112-112-112H79z" horiz-adv-x="294" unicode="'"/><glyph d="M390-246q-111 0-187 39T89-88 50 116v278q0 124 38 204t115 119 187 39V648q-109 0-163-62t-55-196V120q0-133 54-195t164-63v-108z" horiz-adv-x="398" unicode="("/><glyph d="M0-246v108q110 0 164 62t54 196v270q0 133-54 195T0 648v108q112 0 187-39t114-119 39-204V116q0-124-38-204T188-207 0-246z" horiz-adv-x="390" unicode=")"/><glyph d="M44 437v74h78l72-13 5 13-60 41-55 56 52 52 56-55 41-60 13 5-13 72v78h74v-78l-13-72 13-5 41 60 56 55 52-52-55-56-60-41 5-13 72 13h78v-74h-78l-72 13-5-13 60-41 55-56-52-52-56 55-41 60-13-5 13-72v-78h-74v78l13 72-13 5-41-60-56-55-52 52 55 56 60 41-5 13-72-13H44z" horiz-adv-x="540" unicode="*"/><glyph d="M251 141v152H101v114h150v152h118V407h150V293H369V141H251z" horiz-adv-x="620" unicode="+"/><glyph d="M79-147v68h39q46 0 46 46v32h-17q-40 0-66 24T54 84q0 40 26 65t67 25q41 0 67-25t26-69V-35q0-112-112-112H79z" horiz-adv-x="294" unicode=","/><glyph d="M68 198v114h296V198H68z" horiz-adv-x="432" unicode="-"/><glyph d="M150-14q-41 0-68 26T54 81q0 42 27 68t69 27q40 0 67-26t27-69q0-42-27-68t-67-27z" horiz-adv-x="298" unicode="."/><glyph d="M-16-200l294 900h126L110-200H-16z" horiz-adv-x="388" unicode="/"/><glyph d="M324-14q-124 0-199 68T50 262v176q0 135 75 205t199 71q125 0 199-70t75-206V262q0-139-74-207T324-14zm0 114q75 0 110 41t36 117v186q0 77-39 116t-107 40q-69 0-107-41t-39-115V258q0-79 36-118t110-40z" horiz-adv-x="648" unicode="0"/><glyph d="M258 0v606h-18l-94-222H12l143 316h231V0H258z" horiz-adv-x="452" unicode="1"/><glyph d="M42 0v84q0 73 24 121t69 80 112 52l67 21q37 12 62 29t38 43 14 57v4q0 50-34 79t-93 30q-58 0-93-31t-36-91v-18H44v16q0 76 34 129t92 81 131 28q72 0 130-27t91-77 34-117v-10q0-67-27-113t-75-76-107-49l-64-20q-43-13-67-28t-33-34-10-45v-4h377V0H42z" horiz-adv-x="594" unicode="2"/><glyph d="M304-14q-79 0-140 28T69 94 34 219v18h128v-14q0-56 39-89t103-34q65 0 100 31t36 78v10q0 32-16 52t-43 29-61 10H180v140l226 120v16H52v114h496V530L337 418v-16h37q47 0 91-19t74-58 29-103v-12q0-68-33-118t-92-78-139-28z" horiz-adv-x="608" unicode="3"/><glyph d="M370 0v142H26v148l242 410h230V256h116V142H498V0H370zM148 256h222v362h-18L148 272v-16z" horiz-adv-x="636" unicode="4"/><glyph d="M303-14q-82 0-141 29T70 97 38 220v10h130v-9q0-50 33-85t100-36q66 0 101 35t36 93v10q0 56-35 89t-89 33q-29 0-48-8t-31-20-20-24H60v392h478V584H188V413h18q10 13 27 25t44 20 64 8q62 0 113-26t81-76 31-125v-12q0-74-31-128t-91-83-141-30z" horiz-adv-x="600" unicode="5"/><glyph d="M312-14q-80 0-139 30T82 99 50 221v239q0 85 34 141t95 85 139 28q78 0 135-26t89-75 32-117H444q0 42-29 73t-97 31q-67 0-103-35t-37-97v-72h18q17 20 52 38t102 18q61 0 112-26t84-75 32-120v-12q0-69-33-121t-93-82-140-30zm2 114q63 0 99 33t37 88v8q0 37-16 64t-47 42-73 15q-41 0-72-15t-47-42-17-64v-8q0-55 36-88t100-33z" horiz-adv-x="618" unicode="6"/><glyph d="M131 0v26q0 39 6 66t26 63l235 415v16H26v114h504V548L282 105q-13-23-18-41t-5-44V0H131z" horiz-adv-x="554" unicode="7"/><glyph d="M300-14q-80 0-141 24T63 79 28 187v12q0 48 17 79t42 50 49 25v18q-23 8-46 26t-37 48-15 72v12q0 55 32 96t92 65 138 24q79 0 138-23t91-65 33-97v-12q0-42-14-72t-37-48-47-26v-18q24-7 49-25t42-49 17-80v-12q0-62-34-107t-96-70-142-24zm0 114q69 0 106 26t38 71v8q0 44-36 70t-108 27q-70 0-107-26t-37-71v-8q0-44 37-70t107-27zm0 316q64 0 99 23t35 65v8q0 42-36 65t-98 23q-62 0-98-23t-36-65v-8q0-42 35-65t99-23z" horiz-adv-x="600" unicode="8"/><glyph d="M300-14q-78 0-135 26T76 87 44 204h130q0-42 29-73t97-31q68 0 104 35t36 97v72h-18q-17-20-51-38t-103-18q-60 0-112 26t-84 75-32 120v12q0 70 33 122t93 81 140 30q80 0 139-30t91-83 32-122V240q0-85-34-141t-95-85-139-28zm4 364q42 0 72 15t47 42 17 64v8q0 56-36 88t-100 33q-63 0-99-32t-37-89v-8q0-37 16-64t48-42 72-15z" horiz-adv-x="618" unicode="9"/><glyph d="M150-14q-41 0-68 26T54 81q0 42 27 68t69 27q40 0 67-26t27-69q0-42-27-68t-67-27zm0 334q-41 0-68 26t-28 69q0 42 27 68t69 27q40 0 67-26t27-69q0-42-27-68t-67-27z" horiz-adv-x="298" unicode=":"/><glyph d="M150 320q-41 0-68 26t-28 69q0 42 27 68t69 27q40 0 67-26t27-69q0-42-27-68t-67-27zM81-147v68h39q46 0 46 46v32h-17q-40 0-66 24T56 84q0 40 26 65t67 25q41 0 67-25t26-69V-35q0-112-112-112H81z" horiz-adv-x="298" unicode=";"/><glyph d="M520 130L100 272v156l420 142V450l-298-91v-18l298-91V130z" horiz-adv-x="620" unicode="&lt;"/><glyph d="M101 380v114h418V380H101zm0-174v114h418V206H101z" horiz-adv-x="620" unicode="="/><glyph d="M100 130v120l298 91v18l-298 91v120l420-142V272L100 130z" horiz-adv-x="620" unicode="&gt;"/><glyph d="M209 230v24q0 51 20 84t67 55l17 8q45 21 69 45t24 64q0 29-14 49t-41 32-61 11q-36 0-64-12t-45-36-17-60v-22H34v20q0 69 34 119t92 76 130 27q71 0 126-26t88-72 32-106q0-60-22-98t-55-62-69-41l-17-8q-18-8-25-19t-7-34v-18H209zm70-244q-40 0-67 26t-28 69q0 42 27 68t68 27q41 0 68-26t27-69q0-42-27-68t-68-27z" horiz-adv-x="578" unicode="?"/><glyph d="M524-200q-143 0-245 54T121 9 66 246v24q0 137 54 236t154 154 238 54h22q126 0 220-52t146-147 52-219v-74q0-105-43-163T780 0h-58q-47 0-72 19t-25 51v2h-18q-8-21-23-39T544 5 483-6q-63 0-108 33t-70 90-25 125v16q0 70 23 126t67 89 103 33q37 0 61-9t39-24 25-33h18v60h122V146q0-17 7-25t24-9h4q29 0 42 27t13 83v72q0 95-32 163t-99 106-167 37h-14q-101 0-174-38T230 450t-40-184v-16q0-109 40-184T347-47t185-39h208v-114H524zm-15 302q49 0 78 38t29 104v12q0 66-29 104t-78 38q-49 0-77-38t-28-104v-12q0-66 28-104t77-38z" horiz-adv-x="1014" unicode="@"/><glyph d="M18 0l184 700h230L616 0H480l-38 154H192L154 0H18zm205 276h188l-85 341h-18l-85-341z" horiz-adv-x="634" unicode="A"/><glyph d="M46 0v116h92v468H46v116h360q64 0 111-21t74-61 27-95v-10q0-48-18-78t-42-47-47-24v-18q22-6 48-22t44-48 19-81v-10q0-58-27-99t-74-64T410 0H46zm224 120h124q43 0 69 21t27 60v10q0 39-26 60t-70 21H270V120zm0 292h122q41 0 67 21t27 58v10q0 38-26 58t-68 21H270V412z" horiz-adv-x="664" unicode="B"/><glyph d="M332-14q-130 0-206 72T50 266v168q0 135 76 207t206 73q129 0 199-70t71-194v-6H472v10q0 62-34 102t-106 40q-70 0-110-43t-40-117V264q0-73 40-116t110-44q71 0 105 40t35 102v18h130v-14q0-123-70-193T332-14z" horiz-adv-x="644" unicode="C"/><glyph d="M46 0v116h92v468H46v116h288q141 0 214-71t74-213V284q0-141-73-212T334 0H46zm224 120h66q80 0 117 42t37 118v140q0 77-37 118t-117 42h-66V120z" horiz-adv-x="666" unicode="D"/><glyph d="M66 0v700h450V580H198V413h290V293H198V120h324V0H66z" horiz-adv-x="554" unicode="E"/><glyph d="M66 0v700h440V580H198V411h284V291H198V0H66z" horiz-adv-x="534" unicode="F"/><glyph d="M308-14q-72 0-130 32t-93 95-35 153v168q0 135 76 207t206 73q129 0 199-68t71-186v-4H472v8q0 37-15 67t-47 47-78 18q-70 0-110-43t-40-117V264q0-73 40-117t112-45q72 0 105 38t33 96v10H306v112h296V0H480v67h-18q-7-17-22-36T393-1t-85-13z" horiz-adv-x="662" unicode="G"/><glyph d="M66 0v700h132V411h260v289h132V0H458v291H198V0H66z" horiz-adv-x="656" unicode="H"/><glyph d="M66 0v700h132V0H66z" horiz-adv-x="264" unicode="I"/><glyph d="M267-14Q159-14 96 45T32 210v66h132v-66q0-47 26-73t73-27q44 0 68 26t25 74v370H236v120h332V580h-80V210q0-109-59-166T267-14z" horiz-adv-x="610" unicode="J"/><glyph d="M66 0v700h132V422h18l227 278h169L320 355 622 0H448L216 284h-18V0H66z" horiz-adv-x="626" unicode="K"/><glyph d="M66 0v700h132V120h320V0H66z" horiz-adv-x="542" unicode="L"/><glyph d="M66 0v700h245L432 90h18l121 610h245V0H688v603h-18L550 0H332L212 603h-18V0H66z" horiz-adv-x="882" unicode="M"/><glyph d="M66 0v700h251L456 90h18v610h130V0H353L214 610h-18V0H66z" horiz-adv-x="670" unicode="N"/><glyph d="M338-14q-132 0-210 72T50 266v168q0 135 78 207t210 73q132 0 210-72t78-208V266q0-135-78-207T338-14zm0 118q74 0 115 43t41 115v176q0 72-41 115t-115 43q-73 0-114-43t-42-115V262q0-72 41-115t115-43z" horiz-adv-x="676" unicode="O"/><glyph d="M66 0v700h288q66 0 116-26t79-75 29-114v-14q0-65-29-113t-80-75-115-27H198V0H66zm132 376h143q47 0 76 26t29 71v10q0 45-29 71t-76 26H198V376z" horiz-adv-x="604" unicode="P"/><glyph d="M338-14q-132 0-210 72T50 266v168q0 135 78 207t210 73q132 0 210-72t78-208V266q0-135-78-207T338-14zm0 118q74 0 115 43t41 115v176q0 72-41 115t-115 43q-73 0-114-43t-42-115V262q0-72 41-115t115-43zm46-284q-49 0-79 30t-31 82V0h128v-48q0-30 28-30h59v-102H384z" horiz-adv-x="676" unicode="Q"/><glyph d="M66 0v700h304q66 0 115-23t76-65 27-99v-12q0-63-30-102t-74-57v-18q40-2 62-27t22-68V0H436v210q0 24-12 39t-42 15H198V0H66zm132 384h158q47 0 73 25t27 68v10q0 42-26 67t-74 26H198V384z" horiz-adv-x="632" unicode="R"/><glyph d="M309-14q-81 0-143 29T69 98 34 228v28h130v-28q0-63 39-94t106-32q68 0 101 27t34 69q0 29-16 47t-48 29-77 22l-23 5q-72 16-123 40t-79 65-28 104q0 64 30 109t86 70 131 25q75 0 133-25t92-76 34-127v-30H426v30q0 40-15 64t-45 36-69 12q-60 0-88-22t-29-62q0-26 13-44t41-30 69-21l23-5q75-16 130-41t87-66 31-105q0-64-32-112t-92-76-141-28z" horiz-adv-x="606" unicode="S"/><glyph d="M228 0v580H24v120h540V580H360V0H228z" horiz-adv-x="588" unicode="T"/><glyph d="M336-14q-86 0-147 31t-94 90-33 139v454h132V242q0-64 36-101t106-37q69 0 105 37t37 101v458h132V246q0-80-32-138t-94-90-148-32z" horiz-adv-x="672" unicode="U"/><glyph d="M196 0L18 700h136L302 85h14l148 615h136L422 0H196z" horiz-adv-x="618" unicode="V"/><glyph d="M122 0L30 700h131l68-608h18l88 608h228l88-608h18l68 608h131L776 0H548l-90 622h-18L350 0H122z" horiz-adv-x="898" unicode="W"/><glyph d="M22 0l205 353L24 700h150l139-253h18l139 253h150L417 353 622 0H472L331 259h-18L172 0H22z" horiz-adv-x="644" unicode="X"/><glyph d="M246 0v241L8 700h147l148-300h18l148 300h147L378 241V0H246z" horiz-adv-x="624" unicode="Y"/><glyph d="M46 0v168l346 398v16H56v118h474V532L184 134v-16h348V0H46z" horiz-adv-x="576" unicode="Z"/><glyph d="M172-246q-45 0-73 28t-29 74v798q0 45 28 73t74 29h170V648H219q-27 0-27-30v-726q0-30 27-30h123v-108H172z" horiz-adv-x="358" unicode="["/><glyph d="M278-200L-16 700h126l294-900H278z" horiz-adv-x="388" unicode="\"/><glyph d="M16-246v108h123q27 0 27 30v726q0 30-27 30H16v108h170q45 0 73-28t29-74v-798q0-45-28-73t-74-29H16z" horiz-adv-x="358" unicode="]"/><glyph d="M70 424l146 276h188l146-276H410l-91 196h-18l-91-196H70z" horiz-adv-x="620" unicode="^"/><glyph d="M65-162v114h490v-114H65z" horiz-adv-x="620" unicode="_"/><glyph d="M146 552L40 700h142l74-148H146z" horiz-adv-x="296" unicode="`"/><glyph d="M224-14q-53 0-95 18T63 58t-25 87q0 51 24 85t68 52 100 18h136v28q0 35-22 57t-70 23q-47 0-70-21t-30-56L58 370q12 38 38 69t71 51 109 20q98 0 155-49t57-142V134q0-30 28-30h40V0h-84q-37 0-61 18t-24 48v1h-19q-4-12-18-31T306 1t-82-15zm22 102q53 0 86 29t34 79v10H239q-35 0-55-15t-20-42q0-27 21-44t61-17z" horiz-adv-x="578" unicode="a"/><glyph d="M368-14q-67 0-103 23t-53 51h-18V0H70v700h126V439h18q11 18 29 34t49 26 76 11q60 0 111-29t82-87 31-138v-16q0-81-31-138t-82-86-111-30zM330 96q58 0 97 37t39 110v10q0 72-38 109t-98 38q-58 0-97-37t-39-110v-10q0-72 39-109t97-38z" horiz-adv-x="638" unicode="b"/><glyph d="M303-14q-72 0-130 30t-93 87-34 138v14q0 81 34 138t92 87 131 30q71 0 122-25t82-68 42-99l-122-26q-4 30-18 54t-39 38-64 14q-38 0-68-16t-48-49-18-80v-10q0-47 17-79t48-49 69-17q57 0 86 29t38 78l122-29q-13-53-44-96t-83-69-122-25z" horiz-adv-x="586" unicode="c"/><glyph d="M270-14q-59 0-110 29t-83 87-31 138v16q0 81 31 138t82 86 111 30q45 0 75-10t50-27 29-34h18v261h126V0H444v60h-18q-17-28-52-51T270-14zm38 110q58 0 97 37t39 110v10q0 72-38 109t-98 38q-58 0-97-37t-39-110v-10q0-72 39-109t97-38z" horiz-adv-x="638" unicode="d"/><glyph d="M296-14q-74 0-130 31t-88 89-32 136v12q0 78 31 135t87 89 130 32q73 0 127-32t84-90 30-134v-43H174q2-51 38-83t88-32q53 0 78 23t38 51l103-54q-14-26-40-56T408 8 296-14zM175 305h232q-4 43-34 69t-80 26q-51 0-81-26t-37-69z" horiz-adv-x="577" unicode="e"/><glyph d="M152 0v392H26v104h126v92q0 51 30 81t80 31h130V596h-86q-28 0-28-30v-70h130V392H278V0H152z" horiz-adv-x="436" unicode="f"/><glyph d="M46 246v16q0 78 31 133t82 85 113 30q68 0 103-24t51-50h18v60h124V-88q0-51-30-81t-80-31H126v110h288q28 0 28 30V69h-18q-10-16-28-32T348 9 272-2q-61 0-112 29t-83 85-31 134zm262-138q58 0 97 37t39 104v10q0 68-38 104t-98 37q-58 0-97-36t-39-105v-10q0-67 39-104t97-37z" horiz-adv-x="638" unicode="g"/><glyph d="M70 0v700h126V435h18q8 16 25 32t45 26 73 11q58 0 101-26t68-73 24-109V0H424v286q0 56-27 84t-79 28q-58 0-90-38t-32-108V0H70z" horiz-adv-x="616" unicode="h"/><glyph d="M70 0v496h126V0H70zm63 554q-34 0-57 22t-24 58q0 36 23 58t58 22q35 0 58-22t23-58q0-36-23-58t-58-22z" horiz-adv-x="266" unicode="i"/><glyph d="M-22-200v108h66q28 0 28 30v558h126V-88q0-51-30-81t-80-31H-22zm157 754q-34 0-57 22t-24 58q0 36 23 58t58 22q35 0 58-22t23-58q0-36-23-58t-58-22z" horiz-adv-x="268" unicode="j"/><glyph d="M70 0v700h126V313h18l164 183h164L313 256 550 0H388L214 197h-18V0H70z" horiz-adv-x="564" unicode="k"/><glyph d="M70 0v700h126V0H70z" horiz-adv-x="266" unicode="l"/><glyph d="M70 0v496h124v-54h18q13 25 43 43t79 19q53 0 85-20t49-54h18q17 32 48 53t88 21q46 0 83-19t60-59 23-100V0H662v317q0 41-21 61t-59 21q-43 0-66-27t-24-79V0H366v317q0 41-21 61t-59 21q-43 0-66-27t-24-79V0H70z" horiz-adv-x="854" unicode="m"/><glyph d="M70 0v496h124v-65h18q12 26 45 49t100 24q58 0 101-26t68-73 24-109V0H424v286q0 56-27 84t-79 28q-58 0-90-38t-32-108V0H70z" horiz-adv-x="616" unicode="n"/><glyph d="M306-14q-74 0-133 30t-93 87-34 137v16q0 80 34 137t93 87 133 30q74 0 133-30t93-87 34-137v-16q0-80-34-137t-93-87-133-30zm0 112q58 0 96 37t38 108v10q0 70-37 107t-97 38q-58 0-96-37t-38-108v-10q0-70 38-107t96-38z" horiz-adv-x="612" unicode="o"/><glyph d="M70-200v696h124v-60h18q17 29 53 51t103 23q60 0 111-29t82-87 31-138v-16q0-81-31-138t-82-86-111-30q-45 0-75 10t-49 27-30 34h-18v-257H70zM330 96q59 0 97 37t39 110v10q0 72-39 109t-97 38q-58 0-97-37t-39-110v-10q0-72 39-109t97-38z" horiz-adv-x="638" unicode="p"/><glyph d="M442-200V57h-18q-10-17-29-33T346-3t-76-11q-60 0-111 29t-82 87-31 138v16q0 81 31 138t82 86 111 30q68 0 103-22t53-52h18v60h124v-696H442zM308 96q59 0 97 37t39 110v10q0 72-39 109t-97 38q-58 0-97-37t-39-110v-10q0-72 39-109t97-38z" horiz-adv-x="638" unicode="q"/><glyph d="M70 0v496h124v-56h18q11 30 36 44t60 14h60V386h-62q-48 0-79-25t-31-79V0H70z" horiz-adv-x="396" unicode="r"/><glyph d="M276-14q-97 0-159 42T42 148l116 30q7-35 23-55t41-28 54-9q44 0 65 15t21 39q0 23-20 35t-64 21l-28 5q-52 10-95 27t-69 49-26 80q0 74 54 113t142 40q83 0 138-37t72-97l-117-36q-8 38-32 54t-61 16q-36 0-55-12t-19-35q0-24 20-35t54-18l28-5q56-10 101-26t72-47 27-83q0-78-56-120T276-14z" horiz-adv-x="524" unicode="s"/><glyph d="M260 0q-49 0-79 30t-31 82v280H26v104h124v154h126V496h136V392H276V134q0-30 28-30h96V0H260z" horiz-adv-x="456" unicode="t"/><glyph d="M259-8q-58 0-101 26T90 92 66 200v296h126V210q0-56 27-84t79-28q58 0 90 38t32 108v252h126V0H422v65h-18q-12-25-45-49T259-8z" horiz-adv-x="616" unicode="u"/><glyph d="M174 0L16 496h134L265 92h18l115 404h134L374 0H174z" horiz-adv-x="548" unicode="v"/><glyph d="M110 0L40 496h125l44-411h18l64 411h202l64-411h18l44 411h125L674 0H465l-64 411h-18L319 0H110z" horiz-adv-x="784" unicode="w"/><glyph d="M26 0l180 250L28 496h146l113-165h18l113 165h146L386 250 566 0H418L305 167h-18L174 0H26z" horiz-adv-x="592" unicode="x"/><glyph d="M124-200v110h270q28 0 28 30V65h-18q-8-17-25-34T333 3 259-8q-58 0-101 26T90 92 66 200v296h126V210q0-56 27-84t79-28q58 0 90 38t32 108v252h126V-88q0-51-30-81t-80-31H124z" horiz-adv-x="616" unicode="y"/><glyph d="M52 0v150l272 226v16H62v104h400V346L190 120v-16h280V0H52z" horiz-adv-x="518" unicode="z"/><glyph d="M280-246q-45 0-73 28t-29 74v310q0 29-27 29H36v120h115q27 0 27 29v310q0 45 28 73t74 29h170V648H327q-27 0-27-30V344q0-34-21-57t-57-23h-16v-18h16q35 0 56-23t22-57v-274q0-30 27-30h123v-108H280z" horiz-adv-x="466" unicode="{"/><glyph d="M66-246V806h126V-246H66z" horiz-adv-x="258" unicode="|"/><glyph d="M16-246v108h123q27 0 27 30v274q0 34 21 57t57 23h16v18h-16q-35 0-56 23t-22 57v274q0 30-27 30H16v108h170q45 0 73-28t29-74V344q0-29 27-29h115V195H315q-27 0-27-29v-310q0-45-28-73t-74-29H16z" horiz-adv-x="466" unicode="}"/><glyph d="M113 237l-70 93 120 90q20 16 42 26t52 11q29 0 48-11t33-30q14-19 22-27t21-8q12 0 22 6t24 17l79 59 70-93-120-90q-20-16-42-26t-52-11q-29 0-48 11t-33 30q-14 20-21 27t-22 8q-12 0-22-6t-24-17l-79-59z" horiz-adv-x="620" unicode="~"/><glyph horiz-adv-x="254"/><glyph d="M85-200v466h128v-466H85zm65 710q40 0 67-26t27-69q0-42-27-68t-67-27q-41 0-68 26t-28 69q0 42 27 68t69 27z" horiz-adv-x="298" unicode="¡"/><glyph d="M307-14q-72 0-130 30t-93 87-34 138v14q0 81 34 138t92 87 131 30q71 0 122-25t82-68 42-99l-122-26q-4 30-18 54t-39 38-64 14q-38 0-68-16t-48-49-18-80v-10q0-47 17-79t48-49 69-17q57 0 86 29t38 78l122-29q-13-53-44-96t-83-69-122-25zm-54-102v728h112v-728H253z" horiz-adv-x="598" unicode="¢"/><glyph d="M52 0v114h74v172H56v102h70v106q0 104 61 162t167 58q105 0 166-58t62-162v-62H456v66q0 48-27 75t-75 27q-46 0-74-27t-28-75V388h100V286H252V114h334V0H52z" horiz-adv-x="638" unicode="£"/><glyph d="M115 78l-77 77 61 61q-19 29-29 62t-10 72q0 37 10 71t29 63l-61 61 77 77 61-61q29 18 62 28t72 11q37 0 71-10t63-29l61 61 77-77-61-61q18-29 28-63t11-71q0-38-10-71t-29-63l61-61-77-77-61 61q-29-19-63-29t-71-10q-38 0-71 10t-63 29l-61-61zm195 130q40 0 72 19t51 51 19 72q0 40-19 72t-51 51-72 19q-39 0-71-19t-52-51-19-72q0-39 19-71t51-52 72-19z" horiz-adv-x="620" unicode="¤"/><glyph d="M244 0v267l-21 10L-2 700h150l153-298h18l153 298h150L397 277l-21-10V0H244zM83 106v102h454V106H83zm0 156v102h454V262H83z" horiz-adv-x="620" unicode="¥"/><glyph d="M66 366v440h126V366H66zm0-612v440h126v-440H66z" horiz-adv-x="258" unicode="¦"/><glyph d="M240-14q-97 0-153 54T30 184v14h108v-12q0-44 24-71t77-27q43 0 64 16t21 48q0 30-20 46t-73 27q-84 15-131 54T52 390q0 24 5 44t16 38q-21 33-21 78v6q0 50 23 85t64 54 93 19q86 0 140-44t54-122v-22H318v12q0 20-8 37t-26 27-49 10q-34 0-53-15t-20-41q0-32 29-46t72-23q90-16 130-56t41-107q0-50-18-86 9-16 13-34t5-40v-8q0-75-50-122T240-14zm80 323q1 2 1 4t0 7q0 26-18 43t-72 26q-17 3-33 7t-32 10q-3-6-3-16 0-31 29-45t71-22q17-3 30-6t27-8z" horiz-adv-x="474" unicode="§"/><glyph d="M327 550q-34 0-57 21t-24 59q0 37 23 58t58 22q35 0 58-21t23-59q0-37-23-58t-58-22zm-206 0q-34 0-57 21t-24 59q0 37 23 58t58 22q35 0 58-21t23-59q0-37-23-58t-58-22z" horiz-adv-x="448" unicode="¨"/><glyph d="M350-12q-92 0-159 36T87 127 50 290v120q0 95 36 162t104 104 160 36h20q92 0 159-36t104-103 37-163V290q0-95-36-162T530 24 370-12h-20zm2 96h16q96 0 148 52t52 152v124q0 99-52 151t-148 53h-16q-96 0-148-52t-52-152V288q0-99 52-151t148-53zm10 70q-64 0-102 39t-38 111v94q0 72 38 111t102 39q71 0 104-38t34-102v-14h-94v20q0 20-10 32t-34 12q-22 0-33-12t-11-32V288q0-20 11-32t33-12q23 0 33 12t11 32v20h94v-14q0-63-33-101t-105-39z" horiz-adv-x="720" unicode="©"/><glyph d="M161 340q-55 0-91 28t-36 84q0 53 37 81t95 29h89v16q0 26-13 42t-46 16q-31 0-47-15t-21-35l-81 27q11 40 48 68t104 29q66 0 107-33t41-103V443q0-21 19-21h33v-72h-66q-26 0-41 12t-18 33h-12q-3-9-14-22t-32-23-55-10zm18 74q35 0 55 17t21 54v11h-80q-22 0-35-11t-14-29q0-18 14-30t39-12z" horiz-adv-x="419" unicode="ª"/><glyph d="M646 6L352 180v136l294 174h6V354l-181-97v-18l181-97V6h-6zM346 6L52 180v136l294 174h6V354l-181-97v-18l181-97V6h-6z" horiz-adv-x="720" unicode="«"/><glyph d="M408 162v131H100v114h420V162H408z" horiz-adv-x="620" unicode="¬"/><glyph d="M68 198v114h296V198H68z" horiz-adv-x="432" unicode="­"/><glyph d="M258 298q-60 0-107 26t-75 74-28 108q0 61 27 108t75 73 108 27q60 0 107-26t75-74 28-108q0-61-27-108t-75-73-108-27zm0 42q75 0 120 45t46 121q0 75-45 120t-121 46q-75 0-120-45T92 506q0-75 45-120t121-46zm-72 57v222h85q37 0 56-18t19-42q0-19-9-33t-31-23v-10q17-1 24-11t8-27v-58h-42v60q0 21-21 21h-47v-81h-42zm42 119h43q17 0 25 10t8 23q0 14-8 23t-25 9h-43v-65z" horiz-adv-x="516" unicode="®"/><glyph d="M40 566v100h328V566H40z" horiz-adv-x="408" unicode="¯"/><glyph d="M197 394q-46 0-83 20t-60 57-22 84q0 46 22 82t59 56 84 21q46 0 83-20t60-57 22-83q0-46-22-82t-59-57-84-21zm0 96q28 0 46 18t19 46q0 29-18 46t-47 18q-28 0-46-17t-19-47q0-28 18-46t47-18z" horiz-adv-x="394" unicode="°"/><glyph d="M251 162v132H101v114h150v132h118V408h150V294H369V162H251zM101 0v114h418V0H101z" horiz-adv-x="620" unicode="±"/><glyph d="M26 350v44q0 60 32 94t99 49q44 10 64 23t21 34q0 20-16 31t-40 11q-24 0-42-12t-20-44l-94 7q5 61 48 93t108 32q65 0 107-32t43-87q0-54-37-81t-102-41q-40-8-55-18t-16-27h208v-76H26z" horiz-adv-x="364" unicode="²"/><glyph d="M181 338q-66 0-111 32t-50 90l93 10q3-25 22-40t46-16q29 0 45 15t17 36q0 22-16 33t-48 12h-66v66l85 36v14H27v74h308v-78l-106-50v-14q51-2 79-25t29-72q0-36-20-63t-56-44-80-16z" horiz-adv-x="363" unicode="³"/><glyph d="M40 552l74 148h142L150 552H40z" horiz-adv-x="296" unicode="´"/><glyph d="M66-200v696h126V208q0-52 27-81t79-29q58 0 88 36t30 102v260h126V134q0-30 28-30h40V0h-84q-37 0-60 18t-26 52v4h-18q-13-35-46-58T289-8q-32 0-51 8t-32 18h-18v-218H66z" horiz-adv-x="624" unicode="µ"/><glyph d="M254 0v284h-26q-62 0-110 26t-75 72-27 104v12q0 60 28 105t77 71 113 26h314V0H440v598h-78V0H254zm-32 386h32v212h-32q-43 0-70-28t-28-75v-6q0-47 29-75t69-28z" horiz-adv-x="614" unicode="¶"/><glyph d="M110 191q-41 0-68 26t-28 69q0 42 27 68t69 27q40 0 67-26t27-69q0-42-27-68t-67-27z" horiz-adv-x="218" unicode="·"/><glyph d="M155-214q-32 0-62 6t-53 13l20 75q19-6 40-11t49-5q20 0 33 7t13 22q0 14-11 20t-38 7h-38l7 100h86l-4-59q38 0 64-21t27-62q0-32-19-52t-49-30-65-10z" horiz-adv-x="328" unicode="¸"/><glyph d="M130 350v272h-14l-15-78H16l38 156h168V350h-92z" horiz-adv-x="262" unicode="¹"/><glyph d="M218 340q-84 0-135 48T32 525q0 89 51 137t135 48q84 0 135-48t51-137q0-88-51-136t-135-49zm0 76q42 0 67 27t25 82q0 54-25 81t-67 28q-42 0-67-27t-25-82q0-54 25-81t67-28z" horiz-adv-x="436" unicode="º"/><glyph d="M368 6v136l181 97v18l-181 97v136h6l294-174V180L374 6h-6zM68 6v136l181 97v18L68 354v136h6l294-174V180L74 6h-6z" horiz-adv-x="720" unicode="»"/><glyph d="M130 350v272h-14l-15-78H16l38 156h168V350h-92zm15-360L78 45l539 665 67-55L145-10zM660 0v71H458v88l133 191h163V147h60V71h-60V0h-94zM558 147h102v139h-14l-88-127v-12z" horiz-adv-x="830" unicode="¼"/><glyph d="M130 350v272h-14l-15-78H16l38 156h168V350h-92zm15-360L78 45l539 665 67-55L145-10zM486 0v44q0 60 32 94t99 49q44 10 64 23t21 34q0 20-16 31t-40 11q-24 0-42-12t-20-44l-94 7q5 61 48 93t108 32q65 0 107-32t43-87q0-54-37-81t-102-41q-40-8-55-18t-16-27h208V0H486z" horiz-adv-x="824" unicode="½"/><glyph d="M181 338q-66 0-111 32t-50 90l93 10q3-25 22-40t46-16q29 0 45 15t17 36q0 22-16 33t-48 12h-66v66l85 36v14H27v74h308v-78l-106-50v-14q51-2 79-25t29-72q0-36-20-63t-56-44-80-16zm25-348l-67 55 539 665 67-55L206-10zM721 0v71H519v88l133 191h163V147h60V71h-60V0h-94zM619 147h102v139h-14l-88-127v-12z" horiz-adv-x="891" unicode="¾"/><glyph d="M288-214q-71 0-126 26t-88 72T42-10q0 60 22 98t55 63 69 40l17 8q18 8 25 19t7 34v14h132v-20q0-51-20-84t-67-55l-17-8q-45-21-69-44t-24-65q0-29 14-49t41-32 61-11q36 0 64 12t45 36 17 60v22h130V8q0-69-34-118t-92-77-130-27zm11 724q41 0 68-26t27-69q0-42-27-68t-68-27q-40 0-67 26t-28 69q0 42 27 68t68 27z" horiz-adv-x="578" unicode="¿"/><glyph d="M18 0l184 700h230L616 0H480l-38 154H192L154 0H18zm205 276h188l-85 341h-18l-85-341zm60 482L179 888h146l70-130H283z" horiz-adv-x="634" unicode="À"/><glyph d="M18 0l184 700h230L616 0H480l-38 154H192L154 0H18zm205 276h188l-85 341h-18l-85-341zm16 482l70 130h146L351 758H239z" horiz-adv-x="634" unicode="Á"/><glyph d="M18 0l184 700h230L616 0H480l-38 154H192L154 0H18zm205 276h188l-85 341h-18l-85-341zm-98 482l114 130h156l114-130H375l-49 66h-18l-49-66H125z" horiz-adv-x="634" unicode="Â"/><glyph d="M18 0l184 700h230L616 0H480l-38 154H192L154 0H18zm205 276h188l-85 341h-18l-85-341zm-23 470l-64 51 32 43q18 24 38 37t49 13q24 0 39-7t32-21l20-16q10-8 26-9 16 0 26 10t19 21l17 22 64-51-32-43q-18-24-38-37t-49-13q-24 0-39 7t-32 21l-20 16q-10 8-26 9-16 0-26-10t-19-21l-17-22z" horiz-adv-x="634" unicode="Ã"/><glyph d="M18 0l184 700h230L616 0H480l-38 154H192L154 0H18zm205 276h188l-85 341h-18l-85-341zm205 478q-34 0-57 21t-24 59q0 37 23 58t58 22q35 0 58-21t23-59q0-37-23-58t-58-22zm-222 0q-34 0-57 21t-24 59q0 37 23 58t58 22q35 0 58-21t23-59q0-37-23-58t-58-22z" horiz-adv-x="634" unicode="Ä"/><glyph d="M18 0l184 700h230L616 0H480l-38 154H192L154 0H18zm205 276h188l-85 341h-18l-85-341zm94 472q-43 0-73 28t-31 72q0 43 30 71t74 29q44 0 74-28t30-72q0-46-31-73t-73-27zm0 70q14 0 22 8t8 22q0 13-8 21t-22 9q-13 0-21-8t-9-22q0-13 8-21t22-9z" horiz-adv-x="634" unicode="Å"/><glyph d="M375 0v700h408V580H505V413h250V293H505V120h284V0H375zM18 0l234 700h123v-70h-18L242 276h133V154H203L153 0H18z" horiz-adv-x="821" unicode="Æ"/><glyph d="M332-14q-130 0-206 72T50 266v168q0 135 76 207t206 73q129 0 199-70t71-194v-6H472v10q0 62-34 102t-106 40q-70 0-110-43t-40-117V264q0-73 40-116t110-44q71 0 105 40t35 102v18h130v-14q0-123-70-193T332-14zm0-200q-32 0-62 6t-53 13l20 75q19-6 40-11t49-5q20 0 33 7t13 22q0 14-11 20t-38 7h-38l7 100h86l-4-59q38 0 64-21t27-62q0-32-19-52t-49-30-65-10z" horiz-adv-x="644" unicode="Ç"/><glyph d="M66 0v700h450V580H198V413h290V293H198V120h324V0H66zm196 758L158 888h146l70-130H262z" horiz-adv-x="554" unicode="È"/><glyph d="M66 0v700h450V580H198V413h290V293H198V120h324V0H66zm152 758l70 130h146L330 758H218z" horiz-adv-x="554" unicode="É"/><glyph d="M66 0v700h450V580H198V413h290V293H198V120h324V0H66zm38 758l114 130h156l114-130H354l-49 66h-18l-49-66H104z" horiz-adv-x="554" unicode="Ê"/><glyph d="M66 0v700h450V580H198V413h290V293H198V120h324V0H66zm341 754q-34 0-57 21t-24 59q0 37 23 58t58 22q35 0 58-21t23-59q0-37-23-58t-58-22zm-222 0q-34 0-57 21t-24 59q0 37 23 58t58 22q35 0 58-21t23-59q0-37-23-58t-58-22z" horiz-adv-x="554" unicode="Ë"/><glyph d="M66 0v700h132V0H66zm288 758L250 888h146l70-130H354z" horiz-adv-x="264" unicode="Ì"/><glyph d="M66 0v700h132V0H66zM54 758l70 130h146L166 758H54z" horiz-adv-x="264" unicode="Í"/><glyph d="M66 0v700h132V0H66zm130 758l114 130h156l114-130H446l-49 66h-18l-49-66H196z" horiz-adv-x="264" unicode="Î"/><glyph d="M66 0v700h132V0H66zm433 754q-34 0-57 21t-24 59q0 37 23 58t58 22q35 0 58-21t23-59q0-37-23-58t-58-22zm-222 0q-34 0-57 21t-24 59q0 37 23 58t58 22q35 0 58-21t23-59q0-37-23-58t-58-22z" horiz-adv-x="264" unicode="Ï"/><glyph d="M46 0v116h92v468H46v116h288q141 0 214-71t74-213V284q0-141-73-212T334 0H46zm224 120h66q80 0 117 42t37 118v140q0 77-37 118t-117 42h-66V120zm32 186v90h340v-90H302z" horiz-adv-x="666" unicode="Ð"/><glyph d="M66 0v700h251L456 90h18v610h130V0H353L214 610h-18V0H66zm151 746l-64 51 32 43q18 24 38 37t49 13q24 0 39-7t32-21l20-16q10-8 26-9 16 0 26 10t19 21l17 22 64-51-32-43q-18-24-38-37t-49-13q-24 0-39 7t-32 21l-20 16q-10 8-26 9-16 0-26-10t-19-21l-17-22z" horiz-adv-x="670" unicode="Ñ"/><glyph d="M338-14q-132 0-210 72T50 266v168q0 135 78 207t210 73q132 0 210-72t78-208V266q0-135-78-207T338-14zm0 118q74 0 115 43t41 115v176q0 72-41 115t-115 43q-73 0-114-43t-42-115V262q0-72 41-115t115-43zm-34 654L200 888h146l70-130H304z" horiz-adv-x="676" unicode="Ò"/><glyph d="M338-14q-132 0-210 72T50 266v168q0 135 78 207t210 73q132 0 210-72t78-208V266q0-135-78-207T338-14zm0 118q74 0 115 43t41 115v176q0 72-41 115t-115 43q-73 0-114-43t-42-115V262q0-72 41-115t115-43zm-78 654l70 130h146L372 758H260z" horiz-adv-x="676" unicode="Ó"/><glyph d="M338-14q-132 0-210 72T50 266v168q0 135 78 207t210 73q132 0 210-72t78-208V266q0-135-78-207T338-14zm0 118q74 0 115 43t41 115v176q0 72-41 115t-115 43q-73 0-114-43t-42-115V262q0-72 41-115t115-43zM146 758l114 130h156l114-130H396l-49 66h-18l-49-66H146z" horiz-adv-x="676" unicode="Ô"/><glyph d="M338-14q-132 0-210 72T50 266v168q0 135 78 207t210 73q132 0 210-72t78-208V266q0-135-78-207T338-14zm0 118q74 0 115 43t41 115v176q0 72-41 115t-115 43q-73 0-114-43t-42-115V262q0-72 41-115t115-43zM221 746l-64 51 32 43q18 24 38 37t49 13q24 0 39-7t32-21l20-16q10-8 26-9 16 0 26 10t19 21l17 22 64-51-32-43q-18-24-38-37t-49-13q-24 0-39 7t-32 21l-20 16q-10 8-26 9-16 0-26-10t-19-21l-17-22z" horiz-adv-x="676" unicode="Õ"/><glyph d="M338-14q-132 0-210 72T50 266v168q0 135 78 207t210 73q132 0 210-72t78-208V266q0-135-78-207T338-14zm0 118q74 0 115 43t41 115v176q0 72-41 115t-115 43q-73 0-114-43t-42-115V262q0-72 41-115t115-43zm111 650q-34 0-57 21t-24 59q0 37 23 58t58 22q35 0 58-21t23-59q0-37-23-58t-58-22zm-222 0q-34 0-57 21t-24 59q0 37 23 58t58 22q35 0 58-21t23-59q0-37-23-58t-58-22z" horiz-adv-x="676" unicode="Ö"/><glyph d="M177 138l-81 81 132 131L96 481l81 81 133-131 133 131 81-81-132-131 132-131-81-81-133 131-133-131z" horiz-adv-x="620" unicode="×"/><glyph d="M338-14q-132 0-210 72T50 266v168q0 135 78 207t210 73q132 0 210-72t78-208V266q0-135-78-207T338-14zm0 118q74 0 115 43t41 115v176q0 72-41 115t-115 43q-73 0-114-43t-42-115V262q0-72 41-115t115-43zM207-93l-83 34 346 840 83-34L207-93z" horiz-adv-x="676" unicode="Ø"/><glyph d="M336-14q-86 0-147 31t-94 90-33 139v454h132V242q0-64 36-101t106-37q69 0 105 37t37 101v458h132V246q0-80-32-138t-94-90-148-32zm-34 772L198 888h146l70-130H302z" horiz-adv-x="672" unicode="Ù"/><glyph d="M336-14q-86 0-147 31t-94 90-33 139v454h132V242q0-64 36-101t106-37q69 0 105 37t37 101v458h132V246q0-80-32-138t-94-90-148-32zm-78 772l70 130h146L370 758H258z" horiz-adv-x="672" unicode="Ú"/><glyph d="M336-14q-86 0-147 31t-94 90-33 139v454h132V242q0-64 36-101t106-37q69 0 105 37t37 101v458h132V246q0-80-32-138t-94-90-148-32zM144 758l114 130h156l114-130H394l-49 66h-18l-49-66H144z" horiz-adv-x="672" unicode="Û"/><glyph d="M336-14q-86 0-147 31t-94 90-33 139v454h132V242q0-64 36-101t106-37q69 0 105 37t37 101v458h132V246q0-80-32-138t-94-90-148-32zm111 768q-34 0-57 21t-24 59q0 37 23 58t58 22q35 0 58-21t23-59q0-37-23-58t-58-22zm-222 0q-34 0-57 21t-24 59q0 37 23 58t58 22q35 0 58-21t23-59q0-37-23-58t-58-22z" horiz-adv-x="672" unicode="Ü"/><glyph d="M246 0v241L8 700h147l148-300h18l148 300h147L378 241V0H246zm-12 758l70 130h146L346 758H234z" horiz-adv-x="624" unicode="Ý"/><glyph d="M198 138v120h143q47 0 76 26t29 71v10q0 45-29 71t-76 26H198v120h156q66 0 116-26t79-75 29-114v-14q0-65-29-113t-80-75-115-27H198zM66 0v700h132V0H66z" horiz-adv-x="604" unicode="Þ"/><glyph d="M426-14q-63 0-106 21t-67 54-34 66l114 37q8-34 30-55t63-21q36 0 56 20t21 51q0 20-9 33t-26 23-41 18l-42 15q-44 16-64 41t-21 58q0 35 16 57t49 46q24 17 43 39t20 54q0 29-25 47t-67 18q-33 0-65-16t-54-55-21-103V0H70v430q0 90 34 153t94 97 138 34q62 0 111-21t77-60 28-86q0-43-15-73t-39-52-52-40q-8-5-12-10t-5-12q0-14 26-23l25-9q42-15 75-36t53-53 19-81q0-49-24-88T534 9 426-14z" horiz-adv-x="651" unicode="ß"/><glyph d="M224-14q-53 0-95 18T63 58t-25 87q0 51 24 85t68 52 100 18h136v28q0 35-22 57t-70 23q-47 0-70-21t-30-56L58 370q12 38 38 69t71 51 109 20q98 0 155-49t57-142V134q0-30 28-30h40V0h-84q-37 0-61 18t-24 48v1h-19q-4-12-18-31T306 1t-82-15zm22 102q53 0 86 29t34 79v10H239q-35 0-55-15t-20-42q0-27 21-44t61-17zm1 464L141 700h142l74-148H247z" horiz-adv-x="578" unicode="à"/><glyph d="M224-14q-53 0-95 18T63 58t-25 87q0 51 24 85t68 52 100 18h136v28q0 35-22 57t-70 23q-47 0-70-21t-30-56L58 370q12 38 38 69t71 51 109 20q98 0 155-49t57-142V134q0-30 28-30h40V0h-84q-37 0-61 18t-24 48v1h-19q-4-12-18-31T306 1t-82-15zm22 102q53 0 86 29t34 79v10H239q-35 0-55-15t-20-42q0-27 21-44t61-17zm-41 464l74 148h142L315 552H205z" horiz-adv-x="578" unicode="á"/><glyph d="M224-14q-53 0-95 18T63 58t-25 87q0 51 24 85t68 52 100 18h136v28q0 35-22 57t-70 23q-47 0-70-21t-30-56L58 370q12 38 38 69t71 51 109 20q98 0 155-49t57-142V134q0-30 28-30h40V0h-84q-37 0-61 18t-24 48v1h-19q-4-12-18-31T306 1t-82-15zm22 102q53 0 86 29t34 79v10H239q-35 0-55-15t-20-42q0-27 21-44t61-17zM89 552l117 148h150l117-148H346l-56 74h-18l-56-74H89z" horiz-adv-x="578" unicode="â"/><glyph d="M224-14q-53 0-95 18T63 58t-25 87q0 51 24 85t68 52 100 18h136v28q0 35-22 57t-70 23q-47 0-70-21t-30-56L58 370q12 38 38 69t71 51 109 20q98 0 155-49t57-142V134q0-30 28-30h40V0h-84q-37 0-61 18t-24 48v1h-19q-4-12-18-31T306 1t-82-15zm22 102q53 0 86 29t34 79v10H239q-35 0-55-15t-20-42q0-27 21-44t61-17zm-77 454l-69 44 33 57q15 26 36 37t47 12q22 0 38-8t33-23q9-8 19-16t24-8q15 0 24 10t17 21l16 24 69-44-33-57q-15-25-36-37t-47-12q-22 0-38 8t-33 23q-9 8-19 16t-24 8q-15 0-24-10t-17-21l-16-24z" horiz-adv-x="578" unicode="ã"/><glyph d="M224-14q-53 0-95 18T63 58t-25 87q0 51 24 85t68 52 100 18h136v28q0 35-22 57t-70 23q-47 0-70-21t-30-56L58 370q12 38 38 69t71 51 109 20q98 0 155-49t57-142V134q0-30 28-30h40V0h-84q-37 0-61 18t-24 48v1h-19q-4-12-18-31T306 1t-82-15zm22 102q53 0 86 29t34 79v10H239q-35 0-55-15t-20-42q0-27 21-44t61-17zm138 462q-34 0-57 21t-24 59q0 37 23 58t58 22q35 0 58-21t23-59q0-37-23-58t-58-22zm-206 0q-34 0-57 21t-24 59q0 37 23 58t58 22q35 0 58-21t23-59q0-37-23-58t-58-22z" horiz-adv-x="578" unicode="ä"/><glyph d="M224-14q-53 0-95 18T63 58t-25 87q0 51 24 85t68 52 100 18h136v28q0 35-22 57t-70 23q-47 0-70-21t-30-56L58 370q12 38 38 69t71 51 109 20q98 0 155-49t57-142V134q0-30 28-30h40V0h-84q-37 0-61 18t-24 48v1h-19q-4-12-18-31T306 1t-82-15zm22 102q53 0 86 29t34 79v10H239q-35 0-55-15t-20-42q0-27 21-44t61-17zm35 451q-43 0-73 28t-31 72q0 43 30 71t74 29q44 0 74-28t30-72q0-46-31-73t-73-27zm0 70q14 0 22 8t8 22q0 13-8 21t-22 9q-13 0-21-8t-9-22q0-13 8-21t22-9z" horiz-adv-x="578" unicode="å"/><glyph d="M615-14q-71 0-124 36t-83 96-30 134q0 73 29 131t81 93 119 34q72 0 122-33t76-88 27-123v-61H491q2-47 34-78t84-31q51 0 77 21t40 44l93-67q-19-27-45-52T709 2t-94-16zM250 88q53 0 85 30t33 80v7H243q-38 0-59-14t-22-42q0-27 22-44t66-17zM236-14q-87 0-142 41T38 144q0 77 54 116t142 39h134v29q0 34-25 57t-73 23q-46 0-71-22t-35-55L52 370q14 38 41 69t71 51 106 20q61 0 98-19t62-49h28l-22-182 9-185h-28q-9-15-29-36T332 2t-96-16zm256 313h216q-1 47-30 74t-76 27q-50 0-79-27t-31-74z" horiz-adv-x="874" unicode="æ"/><glyph d="M303-14q-72 0-130 30t-93 87-34 138v14q0 81 34 138t92 87 131 30q71 0 122-25t82-68 42-99l-122-26q-4 30-18 54t-39 38-64 14q-38 0-68-16t-48-49-18-80v-10q0-47 17-79t48-49 69-17q57 0 86 29t38 78l122-29q-13-53-44-96t-83-69-122-25zm0-200q-32 0-62 6t-53 13l20 75q19-6 40-11t49-5q20 0 33 7t13 22q0 14-11 20t-38 7h-38l7 100h86l-4-59q38 0 64-21t27-62q0-32-19-52t-49-30-65-10z" horiz-adv-x="586" unicode="ç"/><glyph d="M296-14q-74 0-130 31t-88 89-32 136v12q0 78 31 135t87 89 130 32q73 0 127-32t84-90 30-134v-43H174q2-51 38-83t88-32q53 0 78 23t38 51l103-54q-14-26-40-56T408 8 296-14zM175 305h232q-4 43-34 69t-80 26q-51 0-81-26t-37-69zm85 247L154 700h142l74-148H260z" horiz-adv-x="577" unicode="è"/><glyph d="M296-14q-74 0-130 31t-88 89-32 136v12q0 78 31 135t87 89 130 32q73 0 127-32t84-90 30-134v-43H174q2-51 38-83t88-32q53 0 78 23t38 51l103-54q-14-26-40-56T408 8 296-14zM175 305h232q-4 43-34 69t-80 26q-51 0-81-26t-37-69zm43 247l74 148h142L328 552H218z" horiz-adv-x="577" unicode="é"/><glyph d="M296-14q-74 0-130 31t-88 89-32 136v12q0 78 31 135t87 89 130 32q73 0 127-32t84-90 30-134v-43H174q2-51 38-83t88-32q53 0 78 23t38 51l103-54q-14-26-40-56T408 8 296-14zM175 305h232q-4 43-34 69t-80 26q-51 0-81-26t-37-69zm-73 247l117 148h150l117-148H359l-56 74h-18l-56-74H102z" horiz-adv-x="577" unicode="ê"/><glyph d="M296-14q-74 0-130 31t-88 89-32 136v12q0 78 31 135t87 89 130 32q73 0 127-32t84-90 30-134v-43H174q2-51 38-83t88-32q53 0 78 23t38 51l103-54q-14-26-40-56T408 8 296-14zM175 305h232q-4 43-34 69t-80 26q-51 0-81-26t-37-69zm222 245q-34 0-57 21t-24 59q0 37 23 58t58 22q35 0 58-21t23-59q0-37-23-58t-58-22zm-206 0q-34 0-57 21t-24 59q0 37 23 58t58 22q35 0 58-21t23-59q0-37-23-58t-58-22z" horiz-adv-x="577" unicode="ë"/><glyph d="M70 0v496h126V0H70zm285 552L249 700h142l74-148H355z" horiz-adv-x="266" unicode="ì"/><glyph d="M70 0v496h126V0H70zM57 552l74 148h142L167 552H57z" horiz-adv-x="266" unicode="í"/><glyph d="M70 0v496h126V0H70zm127 552l117 148h150l117-148H454l-56 74h-18l-56-74H197z" horiz-adv-x="266" unicode="î"/><glyph d="M70 0v496h126V0H70zm422 550q-34 0-57 21t-24 59q0 37 23 58t58 22q35 0 58-21t23-59q0-37-23-58t-58-22zm-206 0q-34 0-57 21t-24 59q0 37 23 58t58 22q35 0 58-21t23-59q0-37-23-58t-58-22z" horiz-adv-x="266" unicode="ï"/><glyph d="M307-14q-77-1-136 31t-92 90-33 135v10q0 75 31 130t82 86 112 32q51 1 85-16t57-44h18q-19 79-82 137t-161 92l40 101q112-37 187-107t114-166 39-208q0-100-33-167T444 21 307-14zm-1 112q39 0 69 17t47 50 18 80v4q0 71-37 109t-97 38q-58 0-96-38t-38-109v-4q0-70 38-108t96-39zm-24 432l-58 43 153 211 59-44-154-210z" horiz-adv-x="616" unicode="ð"/><glyph d="M70 0v496h124v-65h18q12 26 45 49t100 24q58 0 101-26t68-73 24-109V0H424v286q0 56-27 84t-79 28q-58 0-90-38t-32-108V0H70zm121 542l-69 44 33 57q15 26 36 37t47 12q22 0 38-8t33-23q9-8 19-16t24-8q15 0 24 10t17 21l16 24 69-44-33-57q-15-25-36-37t-47-12q-22 0-38 8t-33 23q-9 8-19 16t-24 8q-15 0-24-10t-17-21l-16-24z" horiz-adv-x="616" unicode="ñ"/><glyph d="M306-14q-74 0-133 30t-93 87-34 137v16q0 80 34 137t93 87 133 30q74 0 133-30t93-87 34-137v-16q0-80-34-137t-93-87-133-30zm0 112q58 0 96 37t38 108v10q0 70-37 107t-97 38q-58 0-96-37t-38-108v-10q0-70 38-107t96-38zm-34 454L166 700h142l74-148H272z" horiz-adv-x="612" unicode="ò"/><glyph d="M306-14q-74 0-133 30t-93 87-34 137v16q0 80 34 137t93 87 133 30q74 0 133-30t93-87 34-137v-16q0-80-34-137t-93-87-133-30zm0 112q58 0 96 37t38 108v10q0 70-37 107t-97 38q-58 0-96-37t-38-108v-10q0-70 38-107t96-38zm-76 454l74 148h142L340 552H230z" horiz-adv-x="612" unicode="ó"/><glyph d="M306-14q-74 0-133 30t-93 87-34 137v16q0 80 34 137t93 87 133 30q74 0 133-30t93-87 34-137v-16q0-80-34-137t-93-87-133-30zm0 112q58 0 96 37t38 108v10q0 70-37 107t-97 38q-58 0-96-37t-38-108v-10q0-70 38-107t96-38zM114 552l117 148h150l117-148H371l-56 74h-18l-56-74H114z" horiz-adv-x="612" unicode="ô"/><glyph d="M306-14q-74 0-133 30t-93 87-34 137v16q0 80 34 137t93 87 133 30q74 0 133-30t93-87 34-137v-16q0-80-34-137t-93-87-133-30zm0 112q58 0 96 37t38 108v10q0 70-37 107t-97 38q-58 0-96-37t-38-108v-10q0-70 38-107t96-38zM194 542l-69 44 33 57q15 26 36 37t47 12q22 0 38-8t33-23q9-8 19-16t24-8q15 0 24 10t17 21l16 24 69-44-33-57q-15-25-36-37t-47-12q-22 0-38 8t-33 23q-9 8-19 16t-24 8q-15 0-24-10t-17-21l-16-24z" horiz-adv-x="612" unicode="õ"/><glyph d="M306-14q-74 0-133 30t-93 87-34 137v16q0 80 34 137t93 87 133 30q74 0 133-30t93-87 34-137v-16q0-80-34-137t-93-87-133-30zm0 112q58 0 96 37t38 108v10q0 70-37 107t-97 38q-58 0-96-37t-38-108v-10q0-70 38-107t96-38zm103 452q-34 0-57 21t-24 59q0 37 23 58t58 22q35 0 58-21t23-59q0-37-23-58t-58-22zm-206 0q-34 0-57 21t-24 59q0 37 23 58t58 22q35 0 58-21t23-59q0-37-23-58t-58-22z" horiz-adv-x="612" unicode="ö"/><glyph d="M101 293v114h418V293H101zM310 73q-36 0-61 25t-25 61q0 35 25 60t61 26q36 0 61-25t25-61q0-35-25-60t-61-26zm0 382q-36 0-61 25t-25 61q0 35 25 60t61 26q36 0 61-25t25-61q0-35-25-60t-61-26z" horiz-adv-x="620" unicode="÷"/><glyph d="M306-14q-74 0-133 30t-93 87-34 137v16q0 80 34 137t93 87 133 30q74 0 133-30t93-87 34-137v-16q0-80-34-137t-93-87-133-30zm0 112q58 0 96 37t38 108v10q0 70-37 107t-97 38q-58 0-96-37t-38-108v-10q0-70 38-107t96-38zM148-71L78-25l386 588 70-46L148-71z" horiz-adv-x="612" unicode="ø"/><glyph d="M259-8q-58 0-101 26T90 92 66 200v296h126V210q0-56 27-84t79-28q58 0 90 38t32 108v252h126V0H422v65h-18q-12-25-45-49T259-8zm13 560L166 700h142l74-148H272z" horiz-adv-x="616" unicode="ù"/><glyph d="M259-8q-58 0-101 26T90 92 66 200v296h126V210q0-56 27-84t79-28q58 0 90 38t32 108v252h126V0H422v65h-18q-12-25-45-49T259-8zm-29 560l74 148h142L340 552H230z" horiz-adv-x="616" unicode="ú"/><glyph d="M259-8q-58 0-101 26T90 92 66 200v296h126V210q0-56 27-84t79-28q58 0 90 38t32 108v252h126V0H422v65h-18q-12-25-45-49T259-8zM114 552l117 148h150l117-148H371l-56 74h-18l-56-74H114z" horiz-adv-x="616" unicode="û"/><glyph d="M259-8q-58 0-101 26T90 92 66 200v296h126V210q0-56 27-84t79-28q58 0 90 38t32 108v252h126V0H422v65h-18q-12-25-45-49T259-8zm150 558q-34 0-57 21t-24 59q0 37 23 58t58 22q35 0 58-21t23-59q0-37-23-58t-58-22zm-206 0q-34 0-57 21t-24 59q0 37 23 58t58 22q35 0 58-21t23-59q0-37-23-58t-58-22z" horiz-adv-x="616" unicode="ü"/><glyph d="M124-200v110h270q28 0 28 30V65h-18q-8-17-25-34T333 3 259-8q-58 0-101 26T90 92 66 200v296h126V210q0-56 27-84t79-28q58 0 90 38t32 108v252h126V-88q0-51-30-81t-80-31H124zm106 752l74 148h142L340 552H230z" horiz-adv-x="616" unicode="ý"/><glyph d="M70-200v900h126V439h18q11 18 29 34t49 26 76 11q60 0 111-29t82-87 31-138v-16q0-81-31-138t-82-86-111-30q-45 0-75 10t-49 27-30 34h-18v-257H70zM330 96q59 0 97 37t39 110v10q0 72-38 109t-98 38q-58 0-97-37t-39-110v-10q0-72 39-109t97-38z" horiz-adv-x="638" unicode="þ"/><glyph d="M124-200v110h270q28 0 28 30V65h-18q-8-17-25-34T333 3 259-8q-58 0-101 26T90 92 66 200v296h126V210q0-56 27-84t79-28q58 0 90 38t32 108v252h126V-88q0-51-30-81t-80-31H124zm285 750q-34 0-57 21t-24 59q0 37 23 58t58 22q35 0 58-21t23-59q0-37-23-58t-58-22zm-206 0q-34 0-57 21t-24 59q0 37 23 58t58 22q35 0 58-21t23-59q0-37-23-58t-58-22z" horiz-adv-x="616" unicode="ÿ"/><glyph d="M68 198v114h448V198H68z" horiz-adv-x="584" unicode="–"/><glyph d="M68 198v114h752V198H68z" horiz-adv-x="888" unicode="—"/><glyph d="M215 714v-68h-39q-46 0-46-46v-32h17q40 0 66-24t27-61q0-40-26-65t-67-25q-41 0-67 25t-26 69v115q0 112 112 112h49z" horiz-adv-x="294" unicode="‘"/><glyph d="M79 393v68h39q46 0 46 46v32h-17q-40 0-66 24t-27 61q0 40 26 65t67 25q41 0 67-25t26-69V505q0-112-112-112H79z" horiz-adv-x="294" unicode="’"/><glyph d="M79-147v68h39q46 0 46 46v32h-17q-40 0-66 24T54 84q0 40 26 65t67 25q41 0 67-25t26-69V-35q0-112-112-112H79z" horiz-adv-x="294" unicode="‚"/><glyph d="M435 714v-68h-39q-46 0-46-46v-32h17q40 0 66-24t27-61q0-40-26-65t-67-25q-41 0-67 25t-26 69v115q0 112 112 112h49zm-220 0v-68h-39q-46 0-46-46v-32h17q40 0 66-24t27-61q0-40-26-65t-67-25q-41 0-67 25t-26 69v115q0 112 112 112h49z" horiz-adv-x="514" unicode="“"/><glyph d="M79 393v68h39q46 0 46 46v32h-17q-40 0-66 24t-27 61q0 40 26 65t67 25q41 0 67-25t26-69V505q0-112-112-112H79zm220 0v68h39q46 0 46 46v32h-17q-40 0-66 24t-27 61q0 40 26 65t67 25q41 0 67-25t26-69V505q0-112-112-112h-49z" horiz-adv-x="514" unicode="”"/><glyph d="M79-147v68h39q46 0 46 46v32h-17q-40 0-66 24T54 84q0 40 26 65t67 25q41 0 67-25t26-69V-35q0-112-112-112H79zm220 0v68h39q46 0 46 46v32h-17q-40 0-66 24t-27 61q0 40 26 65t67 25q41 0 67-25t26-69V-35q0-112-112-112h-49z" horiz-adv-x="514" unicode="„"/><glyph d="M200 111q-40 0-72 19t-52 52-20 74q0 40 18 72t52 52 74 19q42 0 74-18t51-51 19-75q0-42-19-74t-53-51-72-19z" horiz-adv-x="400" unicode="•"/><glyph d="M406 6L52 176v144l354 170h6V355l-234-98v-18l234-98V6h-6z" horiz-adv-x="480" unicode="‹"/><glyph d="M68 6v135l234 98v18L68 355v135h6l354-170V176L74 6h-6z" horiz-adv-x="480" unicode="›"/></font>
</defs>
</svg>
