<svg fill="none" viewBox="0 0 24 25"><path fill="#4D4D4D" d="M12 23.25c-5.93 0-10.75-4.82-10.75-10.75S6.07 1.75 12 1.75 22.75 6.57 22.75 12.5 17.93 23.25 12 23.25zm0-20c-5.1 0-9.25 4.15-9.25 9.25S6.9 21.75 12 21.75s9.25-4.15 9.25-9.25S17.1 3.25 12 3.25z"/><path fill="#4D4D4D" d="M12 15.75c-.41 0-.75-.34-.75-.75V9c0-.41.34-.75.75-.75s.75.34.75.75v6c0 .41-.34.75-.75.75z"/><path fill="#4D4D4D" d="M12 16.75c-.19 0-.38-.07-.53-.22l-3-3a.754.754 0 010-1.06c.29-.29.77-.29 1.06 0L12 14.94l2.47-2.47c.29-.29.77-.29 1.06 0 .29.29.29.77 0 1.06l-3 3c-.15.15-.34.22-.53.22z"/></svg>